<svg width="48" height="48" viewBox="0 0 48 48" fill="none" xmlns="http://www.w3.org/2000/svg">
<path d="M8.87891 47.2968C8.87891 38.941 15.6527 32.1672 24.0085 32.1672C32.3644 32.1672 39.1378 38.941 39.1378 47.2968H8.87891Z" fill="#EDEBED"/>
<path d="M26.3519 32.3481C25.588 32.2294 24.8054 32.1672 24.0082 32.1672C15.6523 32.1672 8.87891 38.941 8.87891 47.2968H13.5664C13.5664 39.7382 19.1094 33.4745 26.3519 32.3481Z" fill="#DBD9DC"/>
<path d="M25.6218 44.7188H22.3875C22.0634 44.7188 21.8008 44.4562 21.8008 44.1321V39.1809C21.8008 38.8568 22.0634 38.5942 22.3875 38.5942H25.6218C25.9456 38.5942 26.2081 38.8568 26.2081 39.1809V44.1321C26.2081 44.4562 25.9456 44.7188 25.6218 44.7188Z" fill="#DBD9DC"/>
<path d="M24.0067 28.3435H18.582V33.1698L24.0067 38.5941L29.4314 33.1698V28.3435H24.0067Z" fill="#F7D291"/>
<path d="M25.7872 40.3735L24.0078 38.5941L30.2008 32.4011L31.9799 34.1805C32.3966 34.5969 32.3966 35.2722 31.9799 35.6886L27.2953 40.3735C26.8789 40.7899 26.2036 40.7899 25.7872 40.3735Z" fill="#8CB4EB"/>
<path d="M32.2196 34.5515C32.168 34.4164 32.0881 34.2897 31.979 34.1805L30.2 32.4011L26.2148 36.3862C28.3528 36.1255 30.3768 35.4919 32.2196 34.5515Z" fill="#739BD7"/>
<path d="M22.2279 40.3735L24.0074 38.5941L17.8144 32.4011L16.0349 34.1805C15.6186 34.5969 15.6186 35.2722 16.0349 35.6886L20.7199 40.3735C21.1363 40.7899 21.8116 40.7899 22.2279 40.3735Z" fill="#8CB4EB"/>
<path d="M21.7974 36.3862L17.8126 32.4011L16.0332 34.1805C15.9244 34.2897 15.845 34.416 15.793 34.5511C17.6357 35.4916 19.6598 36.1255 21.7974 36.3862Z" fill="#739BD7"/>
<path d="M18.582 28.3435V33.1698L21.7985 36.3862C22.5228 36.4745 23.2593 36.521 24.0067 36.521C24.7542 36.521 25.491 36.4745 26.215 36.3862L29.4314 33.1698V28.3435H18.582Z" fill="#F0C382"/>
<path d="M42.7173 19.2678C42.7173 21.0476 41.2748 22.4901 39.4954 22.4901C37.7159 22.4901 36.2734 21.0476 36.2734 19.2678C36.2734 17.4884 37.7159 16.0459 39.4954 16.0459C41.2748 16.0459 42.7173 17.4884 42.7173 19.2678Z" fill="#F7D291"/>
<path d="M11.7411 19.2678C11.7411 21.0476 10.2986 22.4901 8.51917 22.4901C6.73938 22.4901 5.29688 21.0476 5.29688 19.2678C5.29688 17.4884 6.73938 16.0459 8.51917 16.0459C10.2986 16.0459 11.7411 17.4884 11.7411 19.2678Z" fill="#F0C382"/>
<path d="M40.2621 18.3637C40.2621 27.3402 32.9847 34.6176 24.0078 34.6176C15.0309 34.6176 7.75391 27.3402 7.75391 18.3637C7.75391 9.38673 15.0309 2.10938 24.0078 2.10938C32.9847 2.10938 40.2621 9.38673 40.2621 18.3637Z" fill="#FFE1A0"/>
<path d="M12.4414 18.3637C12.4414 10.1825 18.4854 3.41455 26.3516 2.2782C25.5862 2.1676 24.804 2.10938 24.0078 2.10938C15.0312 2.10938 7.75391 9.38673 7.75391 18.3637C7.75391 27.3402 15.0312 34.6176 24.0078 34.6176C24.804 34.6176 25.5862 34.5594 26.3516 34.4488C18.4854 33.3124 12.4414 26.5445 12.4414 18.3637Z" fill="#F7D291"/>
<path d="M40.0223 21.1359C40.1772 20.235 40.26 19.3088 40.26 18.3636C40.26 17.5968 40.2058 16.8428 40.1029 16.1045C40.665 16.2122 41.1752 16.4659 41.5927 16.8248L41.5985 16.8087C40.8086 7.79626 33.22 0.703125 24.0057 0.703125C14.7948 0.703125 7.20801 7.7915 6.41406 16.7999L6.42212 16.8219C6.83887 16.4645 7.3479 16.2118 7.90894 16.1041C7.80603 16.8428 7.75183 17.5968 7.75183 18.3633C7.75183 19.3088 7.83459 20.2346 7.9895 21.1359C10.0612 21.1359 11.7406 19.4564 11.7406 17.3848V13.5037C11.7406 12.9507 12.1885 12.5024 12.7415 12.5024H35.27C35.823 12.5024 36.2712 12.9507 36.2712 13.5037V17.3848C36.2712 19.4564 37.9503 21.1359 40.0223 21.1359Z" fill="#B67F5F"/>
<path d="M12.7415 12.5028C14.8746 6.4574 20.2096 1.90979 26.6999 0.909302C25.8214 0.774536 24.9216 0.703125 24.0057 0.703125C14.7948 0.703125 7.20801 7.7915 6.41406 16.7999L6.42212 16.8219C6.83887 16.4645 7.3479 16.2118 7.90894 16.1041C7.80603 16.8428 7.75183 17.5968 7.75183 18.3633C7.75183 19.3088 7.83459 20.2346 7.9895 21.1359C10.0612 21.1359 11.7406 19.4564 11.7406 17.3848V13.5037C11.7406 12.951 12.1885 12.5028 12.7415 12.5028Z" fill="#A06E50"/>
<path d="M6.81527 14.4782H41.2032C41.7027 14.4782 42.0682 14.001 41.9312 13.5209C41.3014 11.316 40.2533 9.28607 38.8781 7.52277C38.7338 7.33783 38.5138 7.22797 38.279 7.22797H9.73946C9.50509 7.22797 9.28499 7.33783 9.14071 7.52277C7.76522 9.28607 6.71712 11.316 6.08761 13.5209C5.95064 14.001 6.31612 14.4782 6.81527 14.4782Z" fill="#8CB4EB"/>
<path d="M10.7751 13.5206C11.4046 11.3156 12.4527 9.28607 13.8282 7.52277C13.9725 7.33783 14.1926 7.22797 14.4269 7.22797H9.73945C9.50508 7.22797 9.28499 7.33783 9.1407 7.52277C7.76521 9.28607 6.71712 11.3156 6.08761 13.5206C5.95064 14.001 6.31612 14.4778 6.81527 14.4778H11.5028C11.0036 14.4782 10.6381 14.001 10.7751 13.5206Z" fill="#739BD7"/>
<path d="M38.4255 11.5562H9.66406C9.27551 11.5562 8.96094 11.2412 8.96094 10.853C8.96094 10.4645 9.27551 10.1499 9.66406 10.1499H38.4255C38.8137 10.1499 39.1287 10.4645 39.1287 10.853C39.1287 11.2412 38.8137 11.5562 38.4255 11.5562Z" fill="#739BD7"/>
<path d="M40.2883 23.1112C42.079 22.7402 43.4186 21.1413 43.4186 19.2678C43.4186 18.2252 43.0037 17.232 42.2731 16.4985C42.2193 15.9671 42.1438 15.4358 42.0439 14.9113C42.1644 14.8253 42.2742 14.722 42.3665 14.5997C42.6437 14.2324 42.7301 13.7688 42.6042 13.3275C41.9567 11.0595 40.8885 8.96116 39.4295 7.0902C39.1493 6.73094 38.7289 6.52477 38.2759 6.52477H38.032C34.5256 2.37451 29.4338 0 24.0062 0C18.5797 0 13.4872 2.37451 9.9807 6.52477H9.73644C9.2838 6.52477 8.86339 6.73094 8.58324 7.0902C7.12426 8.9608 6.05603 11.0592 5.40857 13.3275C5.28223 13.7688 5.36902 14.2328 5.64624 14.5997C5.73852 14.722 5.84802 14.8253 5.9685 14.9113C5.86853 15.4361 5.79345 15.9671 5.73926 16.4985C5.00867 17.232 4.59375 18.2252 4.59375 19.2681C4.59375 21.1648 5.91174 22.7449 7.72485 23.1123C8.64733 26.2723 10.4864 29.1251 13.0228 31.2831C13.9281 32.0533 14.907 32.7205 15.9408 33.279L15.5361 33.6836C15.4013 33.8184 15.2937 33.9704 15.2116 34.1315C10.8025 37.0817 8.17345 41.9911 8.17345 47.2968C8.17345 47.6853 8.4884 47.9999 8.87658 47.9999H39.1358C39.5243 47.9999 39.8389 47.6853 39.8389 47.2968C39.8389 41.9897 37.2099 37.0806 32.7993 34.1308C32.7172 33.9697 32.6099 33.818 32.4752 33.6836L32.0709 33.2794C33.105 32.7209 34.0843 32.0536 34.9896 31.2835C37.5263 29.1247 39.3658 26.2716 40.2883 23.1112ZM36.9748 15.1812H40.6629C40.686 15.3014 40.7083 15.4215 40.7288 15.5423C40.5677 15.4889 40.4029 15.446 40.2355 15.4138C40.0129 15.3713 39.7833 15.4383 39.6188 15.5947C39.4544 15.7507 39.3757 15.9767 39.4068 16.2011C39.5064 16.9185 39.5573 17.6462 39.5573 18.3632C39.5573 19.0316 39.5134 19.7058 39.4266 20.3741C38.0302 20.0961 36.9748 18.8617 36.9748 17.3847V15.1812ZM40.6746 21.4914C40.6893 21.4127 40.7043 21.3339 40.7178 21.2552C40.7208 21.2373 40.7226 21.2193 40.724 21.2017C40.8826 20.2628 40.9636 19.3084 40.9636 18.3636C40.9636 17.9754 40.95 17.585 40.9229 17.1947C40.9961 17.2452 41.0668 17.2998 41.1346 17.358C41.1371 17.3602 41.1397 17.3617 41.1423 17.3639C41.6952 17.8429 42.0124 18.5368 42.0124 19.2681C42.0124 20.2218 41.4715 21.0644 40.6746 21.4914ZM6.76062 13.7135C7.35864 11.6198 8.34484 9.6826 9.69213 7.95482C9.70385 7.9398 9.72033 7.93101 9.73681 7.93101H28.6054C28.9936 7.93101 29.3085 7.61607 29.3085 7.22789C29.3085 6.83934 28.9936 6.52477 28.6054 6.52477H11.8777C15.0641 3.25524 19.4055 1.40625 24.0062 1.40625C28.6076 1.40625 32.9483 3.25524 36.1351 6.52477H31.2304C30.8419 6.52477 30.5273 6.83934 30.5273 7.22789C30.5273 7.61607 30.8419 7.93101 31.2304 7.93101H38.2759C38.2924 7.93101 38.3085 7.9398 38.3206 7.95482C39.6679 9.6826 40.6545 11.6202 41.2521 13.7138C41.254 13.7204 41.258 13.7343 41.2437 13.7527C41.2272 13.7746 41.2071 13.7746 41.2001 13.7746H6.81481C6.81079 13.7746 6.80676 13.7743 6.8031 13.7739C6.79357 13.7724 6.78039 13.768 6.76867 13.7527C6.75476 13.7343 6.75878 13.7204 6.76062 13.7135ZM8.58617 20.3741C8.49938 19.7058 8.45544 19.0319 8.45544 18.3636C8.45544 17.6462 8.50597 16.9185 8.60558 16.2011C8.63708 15.9767 8.55798 15.7511 8.39355 15.5947C8.22949 15.4387 8.00024 15.3713 7.77685 15.4138C7.60986 15.446 7.44506 15.4889 7.28393 15.5423C7.30407 15.4215 7.32678 15.3014 7.34948 15.1812H11.038V17.3851C11.038 18.8617 9.98217 20.0961 8.58617 20.3741ZM6 19.2678C6 18.5357 6.31787 17.841 6.87231 17.3617C6.87487 17.3595 6.8778 17.358 6.88037 17.3558C6.94738 17.2983 7.01733 17.2445 7.08947 17.1943C7.06274 17.585 7.04919 17.9754 7.04919 18.3632C7.04919 19.3081 7.12976 20.2628 7.28832 21.2017C7.29016 21.2193 7.29162 21.2369 7.29455 21.2548C7.3081 21.3332 7.32311 21.4112 7.33776 21.4892C6.54199 21.0611 6 20.2163 6 19.2678ZM8.82714 21.7591C10.8841 21.3662 12.4442 19.5549 12.4442 17.3847V15.1812H35.5685V17.3847C35.5685 19.5549 37.1282 21.3662 39.1852 21.7591C39.1446 21.9426 39.1006 22.1246 39.0538 22.3055C39.0516 22.3132 39.0494 22.3212 39.0479 22.3289C37.2751 29.1166 31.1498 33.9144 24.0062 33.9144C16.6644 33.9144 10.3978 28.8464 8.82714 21.7591ZM22.5051 41.0544C22.5816 40.9991 22.6556 40.939 22.7237 40.8709L24.0058 39.5888L25.2879 40.8709C25.3564 40.9394 25.43 40.9991 25.5062 41.054V44.0155H22.5051V41.0544ZM24.0058 37.5999L21.546 35.1397C22.3568 35.2591 23.1789 35.3206 24.0062 35.3206C24.8335 35.3206 25.6549 35.2591 26.4653 35.1401L24.0058 37.5999ZM18.9719 34.5549L23.0116 38.5942L21.7291 39.8766C21.5877 40.018 21.357 40.018 21.2153 39.8766L16.5307 35.1917C16.389 35.05 16.389 34.8196 16.5307 34.6779L17.28 33.9283C17.8326 34.167 18.3973 34.3761 18.9719 34.5549ZM38.4158 46.5937H9.59691C9.80236 42.3306 11.8714 38.4074 15.26 35.8245C15.3351 35.9534 15.4259 36.0757 15.5361 36.186L20.221 40.8709C20.4653 41.1152 20.7689 41.2781 21.0988 41.3488V44.1324C21.0988 44.8432 21.6775 45.4218 22.3886 45.4218H25.623C26.3342 45.4218 26.9128 44.8432 26.9128 44.1324V41.3473C27.2347 41.2785 27.5412 41.1203 27.7906 40.8709L32.4755 36.186C32.5858 36.0757 32.6766 35.9531 32.7517 35.8238C36.1413 38.407 38.2104 42.3295 38.4158 46.5937ZM31.4809 34.6779C31.6226 34.8196 31.6226 35.05 31.4809 35.1917L26.796 39.8763C26.659 40.0136 26.4195 40.0136 26.2825 39.8763L25.0001 38.5942L29.039 34.5552C29.614 34.3765 30.179 34.1674 30.7316 33.9286L31.4809 34.6779Z" fill="#0B0B29"/>
<path d="M26.1895 23.0555C26.3828 22.7186 26.2671 22.2887 25.9306 22.0953C25.594 21.9016 25.1641 22.0177 24.9704 22.3542C24.773 22.6981 24.4046 22.9112 24.0087 22.9112C23.6132 22.9112 23.2448 22.6977 23.047 22.3542C22.8537 22.0177 22.4237 21.9016 22.0872 22.0953C21.7506 22.2887 21.6345 22.7186 21.8279 23.0551C22.2758 23.8337 23.1115 24.3175 24.0087 24.3175C24.9063 24.3175 25.7416 23.8341 26.1895 23.0555Z" fill="#0B0B29"/>
<path d="M29.9766 21.5728C30.3647 21.5728 30.6797 21.2582 30.6797 20.8696V19.8051C30.6797 19.4169 30.3647 19.1019 29.9766 19.1019C29.588 19.1019 29.2734 19.4169 29.2734 19.8051V20.8696C29.2734 21.2582 29.588 21.5728 29.9766 21.5728Z" fill="#0B0B29"/>
<path d="M18.0352 19.1019C17.6466 19.1019 17.332 19.4169 17.332 19.8051V20.8696C17.332 21.2582 17.6466 21.5728 18.0352 21.5728C18.4237 21.5728 18.7383 21.2582 18.7383 20.8696V19.8051C18.7383 19.4169 18.4233 19.1019 18.0352 19.1019Z" fill="#0B0B29"/>
<path d="M30.5099 23.585H29.4453C29.0571 23.585 28.7422 23.2704 28.7422 22.8819C28.7422 22.4937 29.0571 22.1788 29.4453 22.1788H30.5099C30.8984 22.1788 31.213 22.4937 31.213 22.8819C31.213 23.2704 30.8984 23.585 30.5099 23.585Z" fill="#E6646E"/>
<path d="M18.5685 23.585H17.5039C17.1157 23.585 16.8008 23.2704 16.8008 22.8819C16.8008 22.4937 17.1157 22.1788 17.5039 22.1788H18.5685C18.957 22.1788 19.2716 22.4937 19.2716 22.8819C19.2716 23.2704 18.957 23.585 18.5685 23.585Z" fill="#E6646E"/>
</svg>
