<svg width="24" height="24" viewBox="0 0 24 24" fill="none" xmlns="http://www.w3.org/2000/svg">
<path fill-rule="evenodd" clip-rule="evenodd" d="M16.1891 6.87089C15.398 6.12785 14.0107 5.23869 11.954 5.23869C9.05759 5.23869 6.59931 7.15102 5.71083 9.79412L5.71063 9.79397L5.71065 9.79437C5.49159 10.4765 5.35778 11.2072 5.35778 11.9625C5.35778 12.7175 5.49157 13.4484 5.72276 14.1304L5.723 14.1304C6.59931 16.7735 9.0576 18.6857 11.954 18.6857C13.5847 18.6857 14.8261 18.2351 15.7509 17.5895L15.7511 17.5896C17.2115 16.5665 17.8686 15.044 17.9903 14.033H11.9541V9.96484H22.2376C22.3957 10.6469 22.4688 11.3047 22.4688 12.206C22.4688 15.5433 21.2761 18.357 19.2073 20.2693L19.2071 20.2693C17.3938 21.9501 14.9112 22.9245 11.954 22.9245C7.67019 22.9245 3.97056 20.464 2.16944 16.8831L2.16925 16.8832C1.42692 15.3972 1.00098 13.7286 1.00098 11.9625C1.00098 10.1963 1.42692 8.52761 2.16925 7.0416L2.16956 7.04145L2.16943 7.04135C3.97055 3.46039 7.67018 1 11.954 1C14.9112 1 17.3817 2.08405 19.2802 3.85018L16.1891 6.87089Z" fill="white"/>
</svg>
