<svg width="181" height="180" viewBox="0 0 181 180" fill="none" xmlns="http://www.w3.org/2000/svg">
<path d="M33.7874 177.363C33.7874 146.029 59.1891 120.627 90.5235 120.627C121.858 120.627 147.26 146.029 147.26 177.363H33.7874Z" fill="#EDEBED"/>
<path d="M90.5234 120.627C79.261 120.627 68.7663 123.909 59.9402 129.568C69.1399 134.221 79.5302 136.847 90.5234 136.847C101.517 136.847 111.908 134.221 121.107 129.568C112.28 123.909 101.786 120.627 90.5234 120.627Z" fill="#DBD9DC"/>
<path d="M99.3126 121.305C96.4479 120.86 93.5131 120.627 90.5235 120.627C59.1891 120.627 33.7874 146.029 33.7874 177.363H51.3655C51.3655 149.018 72.1516 125.53 99.3126 121.305Z" fill="#DBD9DC"/>
<path d="M90.5605 160.134C79.772 160.134 71.0269 151.389 71.0269 140.6V111.056C71.0269 100.269 79.772 91.5242 90.5605 91.5242C101.348 91.5242 110.094 100.269 110.094 111.056V140.6C110.094 151.389 101.349 160.134 90.5605 160.134Z" fill="#8CB4EB"/>
<path d="M90.5605 91.5228C79.772 91.5228 71.0269 100.269 71.0269 111.057V133.993C77.2053 135.846 83.749 136.847 90.5235 136.847C97.324 136.847 103.894 135.839 110.094 133.971V111.057C110.094 100.269 101.349 91.5228 90.5605 91.5228Z" fill="#739BD7"/>
<path d="M104.175 129.923C104.175 137.462 98.0628 143.575 90.5235 143.575C82.9841 143.575 76.8716 137.462 76.8716 129.923C76.8716 122.382 82.9841 116.271 90.5235 116.271C98.0628 116.271 104.175 122.382 104.175 129.923Z" fill="#E3AA75"/>
<path d="M90.5235 116.271C82.9841 116.271 76.8716 122.382 76.8716 129.923C76.8716 132.04 77.3536 134.045 78.2147 135.833C82.2082 136.568 86.3212 136.954 90.5235 136.954C94.7257 136.954 98.8388 136.568 102.832 135.833C103.693 134.045 104.175 132.04 104.175 129.923C104.175 122.382 98.0628 116.271 90.5235 116.271Z" fill="#D29B6E"/>
<path d="M151.477 68.8637C151.477 102.526 124.187 129.816 90.5234 129.816C56.86 129.816 29.5713 102.526 29.5713 68.8637C29.5713 35.2002 56.86 7.91016 90.5234 7.91016C124.187 7.91016 151.477 35.2002 151.477 68.8637Z" fill="#F5B97D"/>
<path d="M151.477 68.8637C151.477 35.2002 124.187 7.91016 90.5234 7.91016C56.86 7.91016 29.5713 35.2002 29.5713 68.8637C29.5713 87.708 38.1241 104.554 51.5604 115.734V68.7593C59.8894 67.2047 72.8533 65.5664 90.5234 65.5664C108.192 65.5664 121.157 67.2047 129.488 68.7593V115.734C142.923 104.554 151.477 87.708 151.477 68.8637Z" fill="#E3AA75"/>
<path d="M158.702 68.8637C157.626 68.8637 156.753 68.0054 156.721 66.9315C155.696 31.3028 126.394 2.63672 90.5233 2.63672C54.653 2.63672 25.3511 31.3028 24.3252 66.9315C24.2936 68.0054 23.4202 68.8637 22.3449 68.8637C21.2504 68.8637 20.3633 69.7508 20.3633 70.8453V101.931C20.3633 102.504 20.6105 103.048 21.0417 103.424L41.2428 121.058C42.5255 122.176 44.5291 121.266 44.5291 119.564V58.5352H136.519V119.564C136.519 121.267 138.521 122.178 139.804 121.058L160.005 103.425C160.436 103.048 160.683 102.504 160.683 101.931V70.8453C160.683 69.7508 159.796 68.8637 158.702 68.8637Z" fill="#8CB4EB"/>
<path d="M44.5277 68.8637C44.5277 68.8293 44.5291 68.7964 44.5291 68.7634V58.5352H45.3352C49.7902 30.2028 72.2723 7.77695 100.634 3.40988C97.3362 2.90176 93.9607 2.63672 90.5233 2.63672C54.653 2.63672 25.3511 31.3028 24.3252 66.9315C24.2936 68.0054 23.4202 68.8637 22.3449 68.8637C21.2504 68.8637 20.3633 69.7508 20.3633 70.8453V101.931C20.3633 102.504 20.6105 103.048 21.0417 103.424L41.2428 121.058C42.52 122.173 44.514 121.273 44.5277 119.582V68.8637Z" fill="#739BD7"/>
<path d="M90.5236 40.1055C68.6374 40.1055 37.498 48.543 37.498 54.6953V61.592C37.498 63.266 39.0952 64.4745 40.7074 64.0227C47.21 62.2031 63.6483 58.535 90.5236 58.535C117.397 58.535 133.837 62.2031 140.34 64.0227C141.952 64.4745 143.549 63.266 143.549 61.592V54.6953C143.55 48.543 112.41 40.1055 90.5236 40.1055Z" fill="#A5CDFF"/>
<path d="M55.0762 47.6641C55.0762 46.733 55.7917 45.7511 57.0757 44.7527C45.9177 47.6792 37.498 51.4955 37.498 54.6953V61.592C37.498 63.266 39.0952 64.4745 40.7074 64.0227C43.5639 63.2235 48.3402 62.0671 55.0762 61.0221V47.6641Z" fill="#8CB4EB"/>
<path d="M114.91 88.4438H110.918C109.462 88.4438 108.281 87.2642 108.281 85.8071C108.281 84.3514 109.462 83.1704 110.918 83.1704H114.91C116.366 83.1704 117.547 84.3514 117.547 85.8071C117.547 87.2642 116.366 88.4438 114.91 88.4438Z" fill="#E6646E"/>
<path d="M70.1286 88.4438H66.1365C64.6808 88.4438 63.4998 87.2642 63.4998 85.8071C63.4998 84.3514 64.6808 83.1704 66.1365 83.1704H70.1286C71.5843 83.1704 72.7654 84.3514 72.7654 85.8071C72.7654 87.2642 71.5843 88.4438 70.1286 88.4438Z" fill="#E6646E"/>
<path d="M90.5233 91.1904C93.8879 91.1904 97.0217 89.3777 98.7013 86.4581C99.4264 85.1947 98.9924 83.5824 97.729 82.8573C96.4669 82.1322 94.8547 82.5662 94.1296 83.8282C93.388 85.1177 92.0065 85.917 90.5233 85.917C89.0402 85.917 87.6586 85.1164 86.9171 83.8282C86.192 82.5662 84.5797 82.1308 83.3177 82.8573C82.0556 83.5824 81.6203 85.1947 82.3454 86.4567C84.0249 89.3763 87.1574 91.1904 90.5233 91.1904Z" fill="#0B0B29"/>
<path d="M112.913 80.8977C114.37 80.8977 115.55 79.718 115.55 78.261V74.2688C115.55 72.8131 114.37 71.6321 112.913 71.6321C111.458 71.6321 110.277 72.8131 110.277 74.2688V78.261C110.277 79.718 111.458 80.8977 112.913 80.8977Z" fill="#0B0B29"/>
<path d="M68.1333 80.8977C69.589 80.8977 70.77 79.718 70.77 78.261V74.2688C70.77 72.8131 69.589 71.6321 68.1333 71.6321C66.6762 71.6321 65.4966 72.8131 65.4966 74.2688V78.261C65.4966 79.718 66.6762 80.8977 68.1333 80.8977Z" fill="#0B0B29"/>
<path d="M159.337 66.2694C158.678 48.5457 151.304 31.9688 138.528 19.5337C125.587 6.93785 108.539 0 90.5232 0C72.507 0 55.459 6.93785 42.5185 19.5337C29.7428 31.9688 22.3669 48.5457 21.7091 66.2694C19.4624 66.5811 17.7266 68.5134 17.7266 70.8452V101.931C17.7266 103.264 18.3033 104.533 19.3086 105.411L39.5083 123.044C40.8912 124.251 42.7877 124.528 44.4576 123.769C46.1275 123.01 47.1657 121.399 47.1657 119.564V115.374C51.5163 119.429 56.3833 122.824 61.6127 125.494C42.9511 135.91 31.1505 155.738 31.1505 177.363C31.1505 178.82 32.3315 180 33.7872 180H147.259C148.715 180 149.896 178.82 149.896 177.363C149.896 155.721 138.101 135.909 119.435 125.494C124.663 122.824 129.531 119.429 133.881 115.374V119.565C133.881 121.399 134.919 123.011 136.589 123.769C137.212 124.053 137.867 124.192 138.516 124.192C139.603 124.192 140.672 123.801 141.537 123.044L161.738 105.411C162.743 104.533 163.32 103.264 163.32 101.931V70.8452C163.32 68.5147 161.584 66.5811 159.337 66.2694ZM74.2442 130.329C74.4612 139.122 81.6779 146.211 90.5232 146.211C99.3686 146.211 106.584 139.122 106.802 130.329C107.021 130.27 107.239 130.215 107.457 130.155V140.6C107.457 149.916 99.8767 157.497 90.5603 157.497C81.2425 157.497 73.6633 149.916 73.6633 140.6V130.177C73.857 130.23 74.0506 130.277 74.2442 130.329ZM79.6234 131.506C83.1967 132.128 86.8414 132.452 90.5232 132.452C94.205 132.452 97.8497 132.128 101.423 131.506C100.653 136.832 96.0589 140.938 90.5232 140.938C84.9875 140.938 80.3938 136.832 79.6234 131.506ZM67.8159 128.254C68.0068 128.327 68.1977 128.4 68.3899 128.471V140.6C68.3899 151.932 76.9373 161.3 87.9236 162.608V174.726H36.4884C37.4662 154.701 49.5251 136.725 67.8159 128.254ZM144.558 174.726H93.197V162.608C104.182 161.3 112.731 151.932 112.731 140.6V128.444C112.897 128.38 113.063 128.317 113.231 128.254C131.528 136.727 143.582 154.686 144.558 174.726ZM158.046 101.633L139.154 118.123V66.4314C139.319 66.4768 139.48 66.5207 139.629 66.5619C140.095 66.6924 140.567 66.7569 141.037 66.7569C142.146 66.7569 143.231 66.3971 144.145 65.7036C145.441 64.7203 146.185 63.2207 146.185 61.592V54.6953C146.185 51.3088 142.541 49.0264 139.798 47.6037C136.596 45.9434 132.082 44.2721 126.741 42.7724C125.339 42.3783 123.883 43.1954 123.489 44.5975C123.095 45.9997 123.913 47.4554 125.314 47.8495C136.789 51.0726 140.448 53.9716 140.912 54.8327V61.445C133.395 59.3549 116.959 55.8983 90.5232 55.8983C64.0874 55.8983 47.6505 59.3549 40.1345 61.445V54.8313C40.6385 53.8851 44.7639 50.6977 57.828 47.2809C68.692 44.4382 80.9157 42.7422 90.5232 42.7422C97.9431 42.7422 106.95 43.7488 115.884 45.5781C117.311 45.8706 118.703 44.9505 118.996 43.5236C119.288 42.0968 118.368 40.7029 116.941 40.4104C107.67 38.5139 98.2878 37.4674 90.5232 37.4674C79.9764 37.4674 66.7365 39.3681 55.1075 42.55C49.5621 44.0661 44.86 45.7676 41.5105 47.4691C38.6555 48.9179 34.8611 51.2443 34.8611 54.694V61.592C34.8611 63.2207 35.604 64.719 36.9018 65.7036C38.2009 66.6883 39.8461 67.0014 41.4172 66.5619C41.5669 66.5193 41.7289 66.4754 41.8923 66.4314V88.5537C41.8923 90.0094 43.072 91.1905 44.529 91.1905C45.9847 91.1905 47.1657 90.0094 47.1657 88.5537V65.1598C55.3835 63.3937 69.836 61.1718 90.5232 61.1718C111.21 61.1718 125.662 63.3937 133.882 65.1598V107.854C122.82 120.145 107.075 127.179 90.5232 127.179C73.971 127.179 58.2276 120.145 47.1657 107.854V98.3975C47.1657 96.9418 45.9847 95.7608 44.529 95.7608C43.072 95.7608 41.8923 96.9418 41.8923 98.3975V118.123L23 101.633V71.4536C25.2041 71.146 26.8946 69.303 26.9606 67.0069C27.9411 32.9672 56.4547 5.27343 90.5232 5.27343C124.592 5.27343 153.105 32.9672 154.086 67.0069C154.152 69.303 155.842 71.146 158.046 71.4536V101.633Z" fill="#0B0B29"/>
</svg>
