<svg width="251" height="180" viewBox="0 0 251 180" fill="none" xmlns="http://www.w3.org/2000/svg">
<g clip-path="url(#clip0)">
<path d="M223.373 114.422C223.373 92.7194 202.64 75.126 177.064 75.126C151.489 75.126 130.756 92.7194 130.756 114.422C130.756 136.124 151.489 153.718 177.064 153.718C202.64 153.718 223.373 136.124 223.373 114.422Z" fill="#DC7346"/>
<path d="M130.644 171.01C130.644 145.373 151.427 124.589 177.064 124.589C202.702 124.589 223.485 145.373 223.485 171.01H130.644Z" fill="#B4F09B"/>
<path d="M184.255 125.144C181.912 124.78 179.51 124.589 177.064 124.589C151.427 124.589 130.644 145.373 130.644 171.01H145.026C145.026 147.819 162.033 128.6 184.255 125.144Z" fill="#64DCA0"/>
<path d="M177.064 112.858H160.42V127.666L177.064 159.968L193.708 127.666V112.858H177.064Z" fill="#F7D291"/>
<path d="M160.42 112.858V127.666L164.991 136.536C168.88 137.401 172.919 137.86 177.064 137.86C181.209 137.86 185.249 137.401 189.137 136.536L193.708 127.666V112.858H160.42Z" fill="#F0C382"/>
<path d="M177.176 159.968L172.258 140.443C172.05 139.62 171.624 138.869 171.024 138.269L158.062 125.307L151.835 131.534C150.981 132.388 150.981 133.774 151.835 134.628L177.176 159.968Z" fill="#CDF5A0"/>
<path d="M170.19 137.435L158.062 125.307L151.835 131.534C151.777 131.593 151.723 131.654 151.672 131.717C157.35 134.643 163.594 136.619 170.19 137.435Z" fill="#B4F09B"/>
<path d="M177.176 159.968L182.094 140.443C182.301 139.62 182.727 138.869 183.327 138.269L196.289 125.307L202.516 131.534C203.37 132.388 203.37 133.774 202.516 134.628L177.176 159.968Z" fill="#CDF5A0"/>
<path d="M202.61 131.637C202.579 131.602 202.55 131.567 202.516 131.534L196.29 125.307L184.191 137.405C190.756 136.561 196.963 134.568 202.61 131.637Z" fill="#B4F09B"/>
<path d="M234.468 85.0114C234.468 90.4722 230.042 94.898 224.583 94.898C219.123 94.898 214.697 90.4722 214.697 85.0114C214.697 79.5519 219.123 75.126 224.583 75.126C230.042 75.126 234.468 79.5519 234.468 85.0114Z" fill="#F7D291"/>
<path d="M139.433 85.0114C139.433 90.4722 135.006 94.898 129.546 94.898C124.087 94.898 119.661 90.4722 119.661 85.0114C119.661 79.5519 124.087 75.126 129.546 75.126C135.006 75.126 139.433 79.5519 139.433 85.0114Z" fill="#F0C382"/>
<path d="M226.936 82.2372C226.936 109.779 204.607 132.107 177.064 132.107C149.521 132.107 127.194 109.779 127.194 82.2372C127.194 54.6943 149.521 32.3661 177.064 32.3661C204.607 32.3661 226.936 54.6943 226.936 82.2372Z" fill="#FFE1A0"/>
<path d="M141.576 82.2372C141.576 57.1359 160.12 36.3706 184.255 32.8841C181.907 32.5447 179.507 32.3661 177.064 32.3661C149.521 32.3661 127.194 54.6943 127.194 82.2372C127.194 109.779 149.521 132.107 177.064 132.107C179.507 132.107 181.907 131.929 184.255 131.589C160.12 128.103 141.576 107.337 141.576 82.2372Z" fill="#F7D291"/>
<path d="M226.205 90.7429C226.682 87.9788 226.936 85.1372 226.936 82.2372C226.936 79.8844 226.768 77.5709 226.454 75.3057C228.178 75.636 229.743 76.4147 231.024 77.5158L231.041 77.4664C228.619 49.8145 205.335 28.0514 177.064 28.0514C148.804 28.0514 125.525 49.7999 123.09 77.4394L123.115 77.5068C124.393 76.4102 125.955 75.6349 127.675 75.3046C127.361 77.5709 127.194 79.8844 127.194 82.2361C127.194 85.1372 127.447 87.9777 127.924 90.7429C134.28 90.7429 139.433 85.59 139.433 79.2338V67.3258C139.433 65.6292 140.807 64.2539 142.503 64.2539H211.625C213.322 64.2539 214.697 65.6292 214.697 67.3258V79.2338C214.697 85.59 219.849 90.7429 226.205 90.7429Z" fill="#FF9664"/>
<path d="M142.503 64.255C149.047 45.7066 165.417 31.7537 185.331 28.684C182.635 28.2705 179.875 28.0514 177.064 28.0514C148.804 28.0514 125.525 49.7999 123.09 77.4394L123.115 77.5068C124.393 76.4102 125.955 75.6349 127.675 75.3046C127.361 77.5709 127.194 79.8844 127.194 82.2361C127.194 85.1372 127.447 87.9777 127.924 90.7429C134.28 90.7429 139.433 85.59 139.433 79.2338V67.3258C139.433 65.6303 140.807 64.255 142.503 64.255Z" fill="#FF8250"/>
<path d="M123.92 68.8057H230.209C231.35 68.8057 232.157 67.7012 231.828 66.609C229.643 59.3708 225.982 52.7673 221.196 47.1493C220.876 46.7729 220.404 46.5605 219.91 46.5605H134.218C133.725 46.5605 133.253 46.7729 132.933 47.1493C128.146 52.7673 124.485 59.3708 122.3 66.609C121.971 67.7012 122.779 68.8057 123.92 68.8057Z" fill="#EDEBED"/>
<path d="M136.683 66.609C138.868 59.3708 142.529 52.7673 147.315 47.1493C147.635 46.7729 148.107 46.5605 148.601 46.5605H134.219C133.725 46.5605 133.253 46.7729 132.933 47.1493C128.147 52.7673 124.485 59.3708 122.301 66.609C121.971 67.7012 122.779 68.8057 123.92 68.8057H138.302C137.161 68.8057 136.353 67.7012 136.683 66.609Z" fill="#DBD9DC"/>
<path d="M217.348 69.09C217.265 68.7855 217.072 68.526 216.805 68.3586C213.781 66.4585 194.59 54.8506 177.064 54.8506C159.538 54.8506 140.347 66.4585 137.324 68.3586C137.056 68.526 136.864 68.7855 136.782 69.09C135.966 72.0867 131.848 88.3722 138.722 87.9823C146.292 87.552 160.938 71.417 177.064 71.417C193.19 71.417 207.836 87.552 215.406 87.9823C222.279 88.3722 218.162 72.0867 217.348 69.09Z" fill="white"/>
<path d="M236.626 85.0115C236.626 81.7463 235.298 78.726 233.117 76.5271C232.91 74.4799 232.591 72.4383 232.16 70.4282C232.595 70.1709 232.984 69.8316 233.298 69.4091C234.022 68.4327 234.246 67.1529 233.893 65.9855C231.642 58.5281 227.923 51.7191 222.839 45.7494C222.11 44.8943 221.042 44.4033 219.911 44.4033H218.775C208.086 32.6302 192.943 25.8942 177.065 25.8942C161.186 25.8942 146.043 32.6302 135.354 44.4033H134.219C133.087 44.4033 132.019 44.8943 131.29 45.7494C126.206 51.7191 122.487 58.527 120.236 65.9855C119.883 67.1529 120.106 68.4327 120.832 69.4091C121.146 69.8316 121.534 70.172 121.97 70.4282C121.539 72.4395 121.219 74.4833 121.011 76.5305C118.832 78.7305 117.503 81.7508 117.503 85.0115C117.503 90.8295 121.552 95.6834 127.117 96.8082C127.887 99.443 128.86 101.992 130.018 104.437C129.08 107.688 128.598 111.043 128.598 114.422C128.598 123.914 132.393 133.085 139.319 140.433C132.397 148.978 128.487 159.725 128.487 171.01C128.487 172.201 129.453 173.167 130.644 173.167H223.485C224.676 173.167 225.642 172.201 225.642 171.01C225.642 159.737 221.73 148.984 214.806 140.437C221.735 133.087 225.53 123.914 225.53 114.422C225.53 111.043 225.049 107.689 224.111 104.439C225.269 101.994 226.242 99.4442 227.012 96.8093C232.571 95.6801 236.626 90.8059 236.626 85.0115ZM200.992 133.059C201.003 133.071 201.003 133.09 200.992 133.102L181.177 152.915L184.186 140.97C184.298 140.525 184.529 140.119 184.853 139.794L192.826 131.821C194.543 131.275 196.221 130.64 197.856 129.924L200.992 133.059ZM177.176 151.136L174.35 139.916C174.048 138.715 173.425 137.619 172.55 136.742L169.522 133.715C171.986 134.075 174.503 134.265 177.065 134.265C179.716 134.265 182.321 134.064 184.867 133.679L181.803 136.742C180.927 137.617 180.304 138.715 180.002 139.915L177.176 151.136ZM153.361 133.059L156.428 129.992C158.119 130.725 159.854 131.375 161.632 131.928L169.498 139.794C169.823 140.119 170.054 140.525 170.166 140.97L173.175 152.915L153.361 133.102C153.349 133.09 153.349 133.071 153.361 133.059ZM177.065 129.95C154.332 129.95 135.263 113.967 130.499 92.6497C132.719 92.2205 134.81 91.2441 136.568 89.8115C137.259 90.071 138.023 90.1834 138.845 90.1351C142.404 89.9328 146.567 87.2665 151.839 83.8901C159.015 79.2934 167.946 73.5732 177.065 73.5732C186.183 73.5732 195.114 79.2934 202.291 83.8901C207.563 87.2665 211.727 89.9328 215.284 90.1351C215.406 90.1418 215.529 90.1463 215.649 90.1463C216.33 90.1463 216.965 90.0284 217.551 89.8092C219.319 91.2632 221.395 92.2351 223.628 92.6565C218.861 113.971 199.795 129.95 177.065 129.95ZM228.199 91.8508C228.51 90.1879 228.742 88.4969 228.892 86.7823C228.896 86.7306 228.901 86.6789 228.905 86.6272C228.93 86.3362 228.951 86.0441 228.971 85.7519C228.98 85.6205 228.989 85.4879 228.996 85.3564C229.011 85.1137 229.024 84.871 229.036 84.6272C229.045 84.4182 229.051 84.2081 229.059 83.9991C229.065 83.8171 229.073 83.6362 229.076 83.4541C229.086 83.0485 229.092 82.6429 229.092 82.2384V82.2373C229.092 82.2317 229.092 82.226 229.092 82.2204C229.092 81.0328 229.05 79.8429 228.969 78.6575C228.997 78.6777 229.027 78.6946 229.056 78.7148C229.109 78.753 229.163 78.7923 229.215 78.8316C231.109 80.2575 232.311 82.5227 232.311 85.0126C232.311 87.9699 230.665 90.5531 228.199 91.8508ZM226.965 73.2046C226.941 73.2001 226.919 73.199 226.895 73.1945C226.883 73.1923 226.872 73.1889 226.859 73.1867C226.176 73.0552 225.472 73.2631 224.967 73.7417C224.464 74.2204 224.221 74.9136 224.317 75.6024C224.622 77.8002 224.777 80.0294 224.778 82.2283V82.2373C224.778 82.7148 224.769 83.1935 224.755 83.6732C224.751 83.7789 224.746 83.8845 224.742 83.9901C224.727 84.3924 224.709 84.7946 224.683 85.1957C224.678 85.2733 224.674 85.3508 224.668 85.4283C224.602 86.4227 224.505 87.4182 224.376 88.4092C223.002 88.1385 221.715 87.562 220.593 86.7148C222.278 82.7216 221.237 75.9687 220.05 70.963H227.86C228.053 71.8293 228.224 72.7024 228.373 73.5799C227.914 73.4282 227.446 73.3013 226.965 73.2046ZM177.065 30.2088C190.368 30.2088 203.112 35.3313 212.734 44.4033H141.395C151.017 35.3313 163.761 30.2088 177.065 30.2088ZM134.431 48.7179H217.811H217.817H217.822H219.699C224.188 54.0337 227.512 60.0618 229.583 66.6473H218.121C218.066 66.608 218.011 66.5675 217.954 66.5315C216.701 65.7439 212.134 62.9562 205.973 60.1259C204.889 59.6281 203.609 60.1034 203.112 61.1866C202.614 62.2686 203.089 63.5495 204.171 64.0473C209.678 66.5765 213.837 69.0563 215.358 69.9967C217.31 77.3249 217.729 83.8261 216.346 85.5339C216.206 85.7058 216.04 85.8575 215.529 85.8272C213.101 85.6901 208.98 83.0508 204.618 80.2564C196.967 75.3563 187.447 69.2585 177.065 69.2585C166.682 69.2585 157.162 75.3575 149.512 80.2564C145.15 83.0508 141.028 85.6901 138.6 85.8272C138.091 85.8575 137.923 85.7058 137.783 85.5339C136.4 83.8261 136.819 77.3249 138.771 69.9979C142.015 67.9934 160.557 57.0079 177.065 57.0079C182.698 57.0079 189.119 58.2742 196.148 60.772C197.27 61.1708 198.504 60.5843 198.903 59.4607C199.302 58.3382 198.715 57.1045 197.592 56.7056C190.098 54.0438 183.192 52.6932 177.065 52.6932C159.108 52.6932 139.853 64.2203 136.175 66.5304C136.117 66.5675 136.063 66.608 136.008 66.6473H124.546C126.618 60.0618 129.941 54.0337 134.431 48.7179ZM126.27 70.963H134.08C132.893 75.9676 131.852 82.7193 133.536 86.7137C132.414 87.5609 131.129 88.1396 129.753 88.4092C129.624 87.4182 129.528 86.4238 129.461 85.4294C129.455 85.3508 129.451 85.2733 129.446 85.1957C129.42 84.7935 129.402 84.3924 129.387 83.9912C129.383 83.8845 129.378 83.7789 129.375 83.6732C129.36 83.1935 129.352 82.7148 129.352 82.2362C129.352 82.2339 129.352 82.2317 129.352 82.2283C129.352 80.0294 129.507 77.8002 129.812 75.6024C129.908 74.9136 129.666 74.2204 129.162 73.7417C128.657 73.2619 127.953 73.0563 127.27 73.1867C127.25 73.19 127.229 73.1956 127.209 73.2001C127.18 73.2046 127.151 73.208 127.121 73.2136C126.655 73.3091 126.2 73.4338 125.757 73.581C125.905 72.7024 126.078 71.8293 126.27 70.963ZM121.818 85.0115C121.818 82.5193 123.026 80.2485 124.925 78.8227C124.962 78.7946 125 78.7676 125.038 78.7406C125.078 78.7114 125.119 78.6856 125.16 78.6586C125.079 79.844 125.037 81.0339 125.037 82.2204V82.2362V82.2373C125.037 82.6418 125.043 83.0474 125.053 83.453C125.056 83.635 125.064 83.8159 125.07 83.9968C125.078 84.207 125.084 84.4171 125.093 84.6272C125.105 84.871 125.118 85.1137 125.133 85.3564C125.141 85.4879 125.15 85.6193 125.159 85.7519C125.178 86.0441 125.199 86.3373 125.224 86.6283C125.228 86.6789 125.233 86.7295 125.237 86.78C125.387 88.4969 125.619 90.189 125.932 91.8553C123.462 90.5609 121.818 87.9823 121.818 85.0115ZM132.914 114.422C132.914 113.005 133.014 111.593 133.202 110.191C137.955 117.623 144.543 123.772 152.323 127.996L150.309 130.008C150.028 130.29 149.798 130.603 149.61 130.933C146.908 132.787 144.431 134.888 142.196 137.192C136.196 130.697 132.914 122.683 132.914 114.422ZM132.854 168.853C133.484 155.866 139.787 143.839 150.092 135.912C150.163 135.994 150.233 136.076 150.31 136.152L175.651 161.493C175.703 161.546 175.758 161.595 175.814 161.641C175.816 161.642 175.818 161.643 175.821 161.646C175.905 161.714 175.994 161.773 176.086 161.827C176.095 161.832 176.103 161.839 176.112 161.845C176.118 161.848 176.126 161.85 176.133 161.855C176.208 161.896 176.286 161.935 176.366 161.967C176.37 161.969 176.375 161.97 176.379 161.972C176.452 162.001 176.527 162.026 176.603 162.047C176.627 162.054 176.653 162.059 176.679 162.065C176.736 162.078 176.795 162.09 176.854 162.099C176.879 162.103 176.905 162.108 176.931 162.11C177.011 162.12 177.09 162.126 177.171 162.126H177.176H177.177H177.181C177.261 162.126 177.341 162.12 177.421 162.11C177.448 162.108 177.474 162.103 177.499 162.099C177.557 162.09 177.614 162.078 177.671 162.065C177.697 162.059 177.724 162.052 177.751 162.046C177.824 162.026 177.896 162.002 177.967 161.974C177.974 161.972 177.98 161.969 177.988 161.967C178.066 161.935 178.143 161.897 178.217 161.856C178.225 161.851 178.233 161.849 178.241 161.845C178.25 161.839 178.258 161.832 178.268 161.826C178.359 161.773 178.447 161.714 178.53 161.647C178.533 161.645 178.535 161.643 178.539 161.641C178.595 161.595 178.649 161.546 178.702 161.494L204.042 136.153C204.086 136.108 204.127 136.06 204.168 136.014C214.392 143.941 220.646 155.932 221.275 168.853H132.854ZM221.215 114.422C221.215 122.683 217.932 130.698 211.932 137.194C209.796 134.99 207.438 132.975 204.875 131.181C204.666 130.753 204.388 130.356 204.042 130.008L201.95 127.916C209.666 123.696 216.203 117.577 220.927 110.191C221.115 111.593 221.215 113.005 221.215 114.422Z" fill="black"/>
<path d="M182.961 93.6867C181.927 93.0923 180.608 93.4485 180.015 94.4811C179.409 95.5361 178.278 96.1901 177.064 96.1901C175.851 96.1901 174.721 95.535 174.115 94.4811C173.521 93.4485 172.201 93.0923 171.169 93.6867C170.136 94.2799 169.78 95.5991 170.373 96.6317C171.748 99.0204 174.312 100.505 177.064 100.505C179.818 100.505 182.381 99.0216 183.756 96.6328C184.349 95.5991 183.994 94.2799 182.961 93.6867Z" fill="black"/>
<path d="M195.384 84.5024C194.193 84.5024 193.226 85.4687 193.226 86.6598V89.9261C193.226 91.1182 194.193 92.0834 195.384 92.0834C196.576 92.0834 197.541 91.1182 197.541 89.9261V86.6598C197.541 85.4687 196.576 84.5024 195.384 84.5024Z" fill="black"/>
<path d="M158.745 84.5024C157.553 84.5024 156.588 85.4687 156.588 86.6598V89.9261C156.588 91.1182 157.553 92.0834 158.745 92.0834C159.936 92.0834 160.903 91.1182 160.903 89.9261V86.6598C160.903 85.4687 159.936 84.5024 158.745 84.5024Z" fill="black"/>
<path d="M197.017 98.2576H193.751C192.56 98.2576 191.594 97.2925 191.594 96.1003C191.594 94.9093 192.56 93.943 193.751 93.943H197.017C198.208 93.943 199.175 94.9093 199.175 96.1003C199.175 97.2925 198.208 98.2576 197.017 98.2576Z" fill="#E6646E"/>
<path d="M160.378 98.2576H157.111C155.92 98.2576 154.954 97.2925 154.954 96.1003C154.954 94.9093 155.92 93.943 157.111 93.943H160.378C161.569 93.943 162.535 94.9093 162.535 96.1003C162.535 97.2925 161.569 98.2576 160.378 98.2576Z" fill="#E6646E"/>
</g>
<path d="M33.6069 177.363C33.6069 146.029 59.0087 120.627 90.3431 120.627C121.677 120.627 147.078 146.029 147.078 177.363H33.6069Z" fill="#EDEBED"/>
<path d="M99.1308 121.305C96.2661 120.86 93.3314 120.627 90.3417 120.627C59.0073 120.627 33.6069 146.029 33.6069 177.363H51.1851C51.1851 149.018 71.9712 125.53 99.1308 121.305Z" fill="#DBD9DC"/>
<path d="M96.4046 167.695H84.2757C83.0603 167.695 82.0757 166.71 82.0757 165.495V146.928C82.0757 145.713 83.0603 144.728 84.2757 144.728H96.4046C97.6186 144.728 98.6032 145.713 98.6032 146.928V165.495C98.6032 166.71 97.6186 167.695 96.4046 167.695Z" fill="#DBD9DC"/>
<path d="M90.3416 106.288H69.999V124.387L90.3416 144.728L110.684 124.387V106.288H90.3416Z" fill="#F7D291"/>
<path d="M97.0129 151.401L90.3401 144.728L113.564 121.504L120.235 128.177C121.798 129.739 121.798 132.271 120.235 133.832L102.668 151.401C101.107 152.962 98.5743 152.962 97.0129 151.401Z" fill="#8CB4EB"/>
<path d="M121.137 129.568C120.944 129.062 120.644 128.587 120.235 128.177L113.564 121.504L98.6196 136.449C106.637 135.471 114.227 133.095 121.137 129.568Z" fill="#739BD7"/>
<path d="M83.6673 151.401L90.3401 144.728L67.1164 121.504L60.4435 128.177C58.8821 129.739 58.8821 132.271 60.4435 133.832L78.012 151.401C79.5735 152.962 82.1058 152.962 83.6673 151.401Z" fill="#8CB4EB"/>
<path d="M82.0592 136.449L67.1164 121.504L60.4436 128.177C60.0357 128.587 59.7377 129.06 59.5427 129.567C66.4531 133.094 74.0433 135.471 82.0592 136.449Z" fill="#739BD7"/>
<path d="M69.999 106.288V124.387L82.0606 136.449C84.777 136.78 87.5387 136.954 90.3416 136.954C93.1445 136.954 95.9075 136.78 98.6225 136.449L110.684 124.387V106.288H69.999Z" fill="#F0C382"/>
<path d="M160.501 72.2542C160.501 78.9284 155.092 84.3378 148.419 84.3378C141.746 84.3378 136.337 78.9284 136.337 72.2542C136.337 65.5814 141.746 60.172 148.419 60.172C155.092 60.172 160.501 65.5814 160.501 72.2542Z" fill="#F7D291"/>
<path d="M44.3472 72.2542C44.3472 78.9284 38.9378 84.3378 32.265 84.3378C25.5908 84.3378 20.1814 78.9284 20.1814 72.2542C20.1814 65.5814 25.5908 60.172 32.265 60.172C38.9378 60.172 44.3472 65.5814 44.3472 72.2542Z" fill="#F0C382"/>
<path d="M151.295 68.8637C151.295 102.526 124.005 129.816 90.3416 129.816C56.6781 129.816 29.3894 102.526 29.3894 68.8637C29.3894 35.2002 56.6781 7.91016 90.3416 7.91016C124.005 7.91016 151.295 35.2002 151.295 68.8637Z" fill="#FFE1A0"/>
<path d="M46.9675 68.8637C46.9675 38.1844 69.6323 12.8046 99.1306 8.54324C96.2604 8.12851 93.3271 7.91016 90.3416 7.91016C56.6794 7.91016 29.3894 35.2002 29.3894 68.8637C29.3894 102.526 56.6794 129.816 90.3416 129.816C93.3271 129.816 96.2604 129.597 99.1306 129.183C69.6323 124.921 46.9675 99.5416 46.9675 68.8637Z" fill="#F7D291"/>
<path d="M150.404 79.2595C150.985 75.8812 151.295 72.4081 151.295 68.8637C151.295 65.988 151.092 63.1604 150.706 60.3918C152.814 60.7956 154.727 61.7473 156.293 63.0931L156.314 63.0327C153.352 29.236 124.895 2.63672 90.3416 2.63672C55.8006 2.63672 27.3501 29.2181 24.3728 62.9997L24.403 63.0821C25.9658 61.7418 27.8747 60.7942 29.9786 60.3905C29.5927 63.1604 29.3894 65.988 29.3894 68.8623C29.3894 72.4081 29.6998 75.8798 30.2807 79.2595C38.0494 79.2595 44.3473 72.9616 44.3473 65.1929V50.6387C44.3473 48.5651 46.0269 46.8842 48.1005 46.8842H132.583C134.656 46.8842 136.337 48.5651 136.337 50.6387V65.1929C136.337 72.9616 142.634 79.2595 150.404 79.2595Z" fill="#B67F5F"/>
<path d="M48.1005 46.8855C56.1 24.2152 76.1061 7.16171 100.445 3.40988C97.1504 2.90451 93.7762 2.63672 90.3416 2.63672C55.8006 2.63672 27.3501 29.2181 24.3728 62.9997L24.403 63.0821C25.9658 61.7418 27.8747 60.7942 29.9786 60.3905C29.5927 63.1604 29.3894 65.988 29.3894 68.8623C29.3894 72.4081 29.6998 75.8798 30.2807 79.2595C38.0494 79.2595 44.3473 72.9616 44.3473 65.1929V50.6387C44.3473 48.5664 46.0269 46.8855 48.1005 46.8855Z" fill="#A06E50"/>
<path d="M25.8641 54.293H154.819C156.692 54.293 158.063 52.5036 157.549 50.7032C155.187 42.4347 151.257 34.8225 146.1 28.2101C145.559 27.5166 144.733 27.1046 143.853 27.1046H36.8299C35.951 27.1046 35.1256 27.5166 34.5845 28.2101C29.4265 34.8225 25.4961 42.4347 23.1354 50.7032C22.6218 52.5036 23.9923 54.293 25.8641 54.293Z" fill="#8CB4EB"/>
<path d="M40.7135 50.7019C43.0742 42.4333 47.0046 34.8225 52.1627 28.2101C52.7037 27.5166 53.5291 27.1046 54.408 27.1046H36.8299C35.951 27.1046 35.1256 27.5166 34.5845 28.2101C29.4265 34.8225 25.4961 42.4333 23.1354 50.7019C22.6218 52.5036 23.9923 54.2916 25.8641 54.2916H43.4423C41.5705 54.293 40.1999 52.5036 40.7135 50.7019Z" fill="#739BD7"/>
<path d="M144.411 43.3356H36.5554C35.0984 43.3356 33.9187 42.1545 33.9187 40.6989C33.9187 39.2418 35.0984 38.0621 36.5554 38.0621H144.411C145.867 38.0621 147.048 39.2418 147.048 40.6989C147.048 42.1545 145.867 43.3356 144.411 43.3356Z" fill="#739BD7"/>
<path d="M151.399 86.6669C158.114 85.2757 163.138 79.2799 163.138 72.2542C163.138 68.3444 161.582 64.6201 158.842 61.8694C158.64 59.8767 158.358 57.8841 157.983 55.9176C158.434 55.5948 158.846 55.2076 159.193 54.7489C160.232 53.3715 160.556 51.6329 160.084 49.9781C157.656 41.4733 153.65 33.6044 148.179 26.5882C147.128 25.241 145.552 24.4679 143.853 24.4679H142.938C129.789 8.9044 110.695 0 90.3413 0C69.9919 0 50.895 8.9044 37.7458 24.4679H36.8298C35.1324 24.4679 33.5558 25.241 32.5053 26.5882C27.0341 33.603 23.0282 41.4719 20.6002 49.9781C20.1265 51.6329 20.4519 53.3729 21.4915 54.7489C21.8376 55.2076 22.2482 55.5948 22.7 55.9176C22.3251 57.8855 22.0436 59.8767 21.8403 61.8694C19.1006 64.6201 17.5447 68.3444 17.5447 72.2556C17.5447 79.3678 22.4871 85.2936 29.2863 86.671C32.7456 98.5211 39.6423 109.219 49.1537 117.312C52.5484 120.2 56.2192 122.702 60.096 124.796L58.5785 126.314C58.0732 126.819 57.6694 127.389 57.3618 127.993C40.8274 139.056 30.9686 157.467 30.9686 177.363C30.9686 178.82 32.1496 180 33.6053 180H147.077C148.534 180 149.714 178.82 149.714 177.363C149.714 157.461 139.855 139.052 123.315 127.99C123.008 127.386 122.605 126.818 122.1 126.314L120.584 124.798C124.462 122.703 128.134 120.201 131.529 117.313C141.042 109.218 147.94 98.5183 151.399 86.6669ZM138.974 56.9297H152.804C152.89 57.3801 152.974 57.8305 153.051 58.2837C152.447 58.0832 151.829 57.9226 151.201 57.8017C150.366 57.6424 149.505 57.8937 148.889 58.4801C148.272 59.0651 147.977 59.9124 148.094 60.7543C148.467 63.4445 148.658 66.1733 148.658 68.8622C148.658 71.3684 148.493 73.8966 148.168 76.4029C142.931 75.3606 138.974 70.7312 138.974 65.1927V56.9297ZM152.848 80.5928C152.903 80.2975 152.959 80.0023 153.01 79.707C153.021 79.6397 153.028 79.5724 153.033 79.5065C153.628 75.9854 153.931 72.4066 153.931 68.8635C153.931 67.4079 153.881 65.9439 153.779 64.48C154.054 64.6695 154.319 64.8741 154.573 65.0925C154.582 65.1007 154.592 65.1062 154.602 65.1145C156.675 66.9107 157.865 69.5131 157.865 72.2556C157.865 75.8316 155.836 78.9915 152.848 80.5928ZM25.6704 51.4255C27.913 43.5744 31.6113 36.3097 36.6636 29.8306C36.7075 29.7743 36.7693 29.7413 36.8311 29.7413H107.588C109.044 29.7413 110.225 28.5603 110.225 27.1046C110.225 25.6475 109.044 24.4679 107.588 24.4679H44.8594C56.8084 12.2072 73.0887 5.27343 90.3413 5.27343C107.597 5.27343 123.874 12.2072 135.825 24.4679H117.432C115.975 24.4679 114.795 25.6475 114.795 27.1046C114.795 28.5603 115.975 29.7413 117.432 29.7413H143.853C143.915 29.7413 143.975 29.7743 144.02 29.8306C149.073 36.3097 152.772 43.5758 155.014 51.4269C155.02 51.4516 155.036 51.5038 154.982 51.5725C154.92 51.6549 154.845 51.6549 154.819 51.6549H25.8737C25.8586 51.6549 25.8435 51.6535 25.8297 51.6521C25.794 51.6466 25.7446 51.6301 25.7006 51.5725C25.6485 51.5038 25.6636 51.4516 25.6704 51.4255ZM32.5163 76.4029C32.1908 73.8966 32.026 71.3698 32.026 68.8635C32.026 66.1733 32.2155 63.4445 32.5891 60.7543C32.7072 59.9124 32.4105 59.0665 31.7939 58.4801C31.1787 57.8951 30.319 57.6424 29.4813 57.8017C28.8551 57.9226 28.2371 58.0832 27.6329 58.2837C27.7084 57.8305 27.7935 57.3801 27.8787 56.9297H41.7104V65.1941C41.7104 70.7312 37.7512 75.3606 32.5163 76.4029ZM22.8181 72.2542C22.8181 69.509 24.0101 66.9039 26.0893 65.1062C26.0989 65.098 26.1099 65.0925 26.1195 65.0843C26.3708 64.8686 26.6331 64.6668 26.9036 64.4786C26.8034 65.9439 26.7526 67.4079 26.7526 68.8622C26.7526 72.4053 27.0547 75.9854 27.6493 79.5065C27.6562 79.5724 27.6617 79.6384 27.6727 79.7057C27.7235 79.9995 27.7798 80.292 27.8347 80.5846C24.8506 78.9792 22.8181 75.811 22.8181 72.2542ZM33.4199 81.5967C41.1337 80.1231 46.9839 73.3308 46.9839 65.1927V56.9297H133.7V65.1927C133.7 73.3308 139.549 80.1231 147.263 81.5967C147.11 82.2847 146.946 82.9672 146.77 83.6456C146.762 83.6745 146.753 83.7047 146.748 83.7335C140.1 109.187 117.13 127.179 90.3413 127.179C62.8096 127.179 39.3099 108.174 33.4199 81.5967ZM84.7122 153.954C84.9992 153.746 85.2766 153.521 85.5321 153.266L90.34 148.458L95.1478 153.266C95.4046 153.523 95.6807 153.746 95.9663 153.952V165.058H84.7122V153.954ZM90.34 141L81.1156 131.774C84.156 132.222 87.2391 132.452 90.3413 132.452C93.4436 132.452 96.5239 132.222 99.563 131.775L90.34 141ZM71.4627 129.581L86.6115 144.728L81.8022 149.537C81.2721 150.067 80.407 150.067 79.8755 149.537L62.3084 131.969C61.7769 131.437 61.7769 130.574 62.3084 130.042L65.1181 127.231C67.1904 128.126 69.308 128.911 71.4627 129.581ZM144.377 174.726H36.3065C37.077 158.74 44.836 144.028 57.5431 134.342C57.8246 134.825 58.1652 135.284 58.5785 135.697L76.147 153.266C77.063 154.182 78.2015 154.793 79.4388 155.058V165.496C79.4388 168.162 81.6086 170.332 84.2755 170.332H96.4044C99.0713 170.332 101.241 168.162 101.241 165.496V155.052C102.448 154.794 103.598 154.201 104.533 153.266L122.101 135.697C122.515 135.284 122.855 134.824 123.137 134.339C135.848 144.026 143.607 158.736 144.377 174.726ZM118.372 130.042C118.903 130.574 118.903 131.437 118.372 131.969L100.803 149.536C100.289 150.051 99.3913 150.051 98.8777 149.536L94.0684 144.728L109.214 129.582C111.37 128.912 113.489 128.128 115.562 127.232L118.372 130.042Z" fill="black"/>
<path d="M98.5194 86.4581C99.2445 85.1947 98.8105 83.5824 97.5485 82.8573C96.2864 82.1308 94.6742 82.5662 93.9477 83.8282C93.2075 85.1177 91.826 85.917 90.3414 85.917C88.8583 85.917 87.4767 85.1164 86.7352 83.8282C86.0101 82.5662 84.3978 82.1308 83.1358 82.8573C81.8737 83.5824 81.4384 85.1947 82.1635 86.4567C83.843 89.3763 86.9769 91.1904 90.3414 91.1904C93.7074 91.1904 96.8398 89.3777 98.5194 86.4581Z" fill="black"/>
<path d="M112.733 80.8977C114.189 80.8977 115.37 79.718 115.37 78.261V74.2688C115.37 72.8131 114.189 71.6321 112.733 71.6321C111.276 71.6321 110.096 72.8131 110.096 74.2688V78.261C110.096 79.718 111.276 80.8977 112.733 80.8977Z" fill="black"/>
<path d="M67.9514 71.6321C66.4944 71.6321 65.3147 72.8131 65.3147 74.2688V78.261C65.3147 79.718 66.4944 80.8977 67.9514 80.8977C69.4085 80.8977 70.5881 79.718 70.5881 78.261V74.2688C70.5881 72.8131 69.4071 71.6321 67.9514 71.6321Z" fill="black"/>
<path d="M114.728 88.4441H110.736C109.281 88.4441 108.1 87.2644 108.1 85.8074C108.1 84.3517 109.281 83.1707 110.736 83.1707H114.728C116.186 83.1707 117.365 84.3517 117.365 85.8074C117.365 87.2644 116.186 88.4441 114.728 88.4441Z" fill="#E6646E"/>
<path d="M69.9467 88.4441H65.9546C64.4989 88.4441 63.3179 87.2644 63.3179 85.8074C63.3179 84.3517 64.4989 83.1707 65.9546 83.1707H69.9467C71.4038 83.1707 72.5835 84.3517 72.5835 85.8074C72.5835 87.2644 71.4038 88.4441 69.9467 88.4441Z" fill="#E6646E"/>
<defs>
<clipPath id="clip0">
<rect width="147.273" height="147.273" fill="white" transform="translate(103.409 26.1818)"/>
</clipPath>
</defs>
</svg>
