<svg width="16" height="13" viewBox="0 0 16 13" fill="none" xmlns="http://www.w3.org/2000/svg">
<path d="M15.5 8.75332C15.5 12.9635 12.1974 11.9635 8 11.9635C3.80264 11.9635 0.5 12.9507 0.5 8.75332C0.5 4.55596 3.80264 0.963501 8 0.963501C12.1974 0.963501 15.5 4.55596 15.5 8.75332Z" fill="white"/>
<path d="M8.00008 0.463501C3.58186 0.463501 0 4.07939 0 8.53986C0 10.9584 1.04374 12.5358 1.04374 12.5358L14.9531 12.5365C14.9531 12.5365 15.9998 10.8126 15.9998 8.5397C15.9998 4.07939 12.418 0.463501 8.00008 0.463501ZM14.3663 11.5526L1.65916 11.547C1.65916 11.547 0.982052 10.2647 0.982052 8.51438C0.982052 4.60495 4.13608 1.43549 8.02691 1.43549C11.9176 1.43549 15.0718 4.60478 15.0718 8.51438C15.0719 10.2845 14.3663 11.5526 14.3663 11.5526Z" fill="#8A0000"/>
<path d="M10.2619 2.60814L10.1615 2.60797L8.02753 6.78949L5.81683 2.57227L2.79003 10.1908H2.00781V10.8027H6.2931V10.1908H5.44281L6.2931 7.80976L8.02753 10.8027L9.69407 7.80976L10.5442 10.1908H9.69407V10.8027H13.9452V10.1908H13.2087L10.2619 2.60814Z" fill="#8A0000"/>
</svg>
