<svg width="118" height="141" viewBox="0 0 118 141" fill="none" xmlns="http://www.w3.org/2000/svg">
<path d="M3.8147e-06 25C3.8147e-06 18.3726 5.41912 12.8861 11.9304 14.1215C24.4663 16.5002 36.1036 22.5939 45.2548 31.7452C57.2572 43.7475 64 60.0261 64 77C64 93.9739 57.2572 110.253 45.2548 122.255C36.1036 131.406 24.4663 137.5 11.9304 139.878C5.41912 141.114 0 135.627 0 129L0 77L3.8147e-06 25Z" fill="#0B0B29"/>
<path d="M10 12C10 5.37258 15.4191 -0.113937 21.9304 1.12154C34.4663 3.5002 46.1036 9.5939 55.2548 18.7452C67.2572 30.7475 74 47.0261 74 64C74 80.9739 67.2572 97.2525 55.2548 109.255C46.1036 118.406 34.4663 124.5 21.9304 126.878C15.4191 128.114 10 122.627 10 116L10 64L10 12Z" fill="white"/>
<circle cx="90" cy="113" r="20" fill="#0B0B29"/>
<circle cx="98" cy="103" r="20" fill="white"/>
</svg>
