<svg width="56" height="67" viewBox="0 0 56 67" fill="none" xmlns="http://www.w3.org/2000/svg">
<path d="M0.000167847 18.1695C0.000167847 11.5421 5.57382 5.95861 11.6907 8.50949C15.3149 10.0209 18.6465 12.235 21.477 15.0655C27.1731 20.7616 30.373 28.487 30.373 36.5424C30.373 44.5978 27.1731 52.3233 21.477 58.0193C18.6465 60.8498 15.3149 63.0639 11.6907 64.5753C5.57382 67.1262 0.000165939 61.5427 0.000165939 54.9153V36.5424L0.000167847 18.1695Z" fill="#3E3AF4"/>
<path d="M4.74577 12C4.74577 5.37255 10.3194 -0.210949 16.4363 2.33993C20.0605 3.85133 23.3921 6.06548 26.2226 8.89598C31.9187 14.592 35.1187 22.3175 35.1187 30.3728C35.1187 38.4282 31.9187 46.1537 26.2226 51.8497C23.3921 54.6802 20.0605 56.8944 16.4363 58.4058C10.3194 60.9566 4.74577 55.3731 4.74577 48.7457V30.3728L4.74577 12Z" fill="white"/>
<circle cx="42.7117" cy="53.6271" r="9.49153" fill="#3E3AF4"/>
<circle cx="46.5086" cy="48.8813" r="9.49153" fill="white"/>
</svg>
