<svg width="181" height="180" viewBox="0 0 181 180" fill="none" xmlns="http://www.w3.org/2000/svg">
<g clip-path="url(#clip0)">
<path d="M32.0952 177.012C32.0952 144.703 58.288 118.511 90.5975 118.511C122.907 118.511 149.098 144.703 149.098 177.012H32.0952Z" fill="#B67F5F"/>
<path d="M99.7285 119.221C96.754 118.754 93.7039 118.511 90.5975 118.511C58.288 118.511 32.0952 144.703 32.0952 177.012H50.3586C50.36 147.809 71.7573 123.606 99.7285 119.221Z" fill="#A06E50"/>
<path d="M50.3601 134.548V177.012H130.835V134.548C120.35 124.609 106.186 118.511 90.5976 118.511C75.0094 118.511 60.8452 124.609 50.3601 134.548Z" fill="#FFD164"/>
<path d="M99.7232 119.222C96.75 118.757 93.7026 118.511 90.5976 118.511C75.008 118.511 60.8452 124.609 50.3601 134.548V177.012C50.3601 147.812 71.7547 123.61 99.7232 119.222Z" fill="#FFC350"/>
<path d="M90.5975 118.511C78.9849 118.511 68.1661 121.896 59.0667 127.73C68.5506 132.527 79.2623 135.234 90.5975 135.234C101.931 135.234 112.644 132.527 122.128 127.73C113.029 121.896 102.209 118.511 90.5975 118.511Z" fill="#FFC350"/>
<path d="M90.5974 152.059C77.3836 152.059 66.6321 141.309 66.6321 128.095C66.6321 114.88 77.3836 104.13 90.5974 104.13C103.811 104.13 114.563 114.88 114.563 128.095C114.563 141.309 103.811 152.059 90.5974 152.059Z" fill="white"/>
<path d="M108.861 118.511C110.12 118.511 111.371 118.555 112.611 118.633C108.935 110.112 100.452 104.13 90.5974 104.13C77.3822 104.13 66.6321 114.88 66.6321 128.095C66.6321 130.633 67.0317 133.08 67.7664 135.378C78.3312 124.951 92.8428 118.511 108.861 118.511Z" fill="#EDEBED"/>
<path d="M90.5974 104.13C77.3836 104.13 66.6321 114.88 66.6321 128.095C66.6321 129.107 66.7021 130.103 66.8243 131.082C74.2511 133.767 82.256 135.235 90.5974 135.235C98.9374 135.235 106.942 133.767 114.369 131.082C114.491 130.103 114.561 129.107 114.561 128.095C114.563 114.88 103.811 104.13 90.5974 104.13Z" fill="#EDEBED"/>
<path d="M107.312 128.095C107.312 137.327 99.8287 144.81 90.5974 144.81C81.3661 144.81 73.8831 137.327 73.8831 128.095C73.8831 118.864 81.3661 111.38 90.5974 111.38C99.8287 111.38 107.312 118.864 107.312 128.095Z" fill="#B67F5F"/>
<path d="M90.5974 111.38C81.3661 111.38 73.8831 118.864 73.8831 128.095C73.8831 129.96 74.1934 131.754 74.7565 133.429C79.8486 134.61 85.1509 135.234 90.5974 135.234C96.0425 135.234 101.345 134.61 106.437 133.429C107.001 131.754 107.312 129.96 107.312 128.095C107.312 118.864 99.8287 111.38 90.5974 111.38Z" fill="#A06E50"/>
<path d="M123.585 177.012H130.835V134.548C128.581 132.413 126.156 130.455 123.585 128.695V177.012Z" fill="white"/>
<path d="M57.6097 177.012H50.3601V134.548C52.6137 132.413 55.0375 130.455 57.6097 128.695V177.012Z" fill="white"/>
<path d="M162.941 68.6331C162.941 75.5133 157.363 81.0916 150.483 81.0916C143.601 81.0916 138.023 75.5133 138.023 68.6331C138.023 61.7515 143.601 56.1732 150.483 56.1732C157.363 56.1732 162.941 61.7515 162.941 68.6331Z" fill="#B67F5F"/>
<path d="M43.1707 69.4512C43.1707 76.3314 37.5924 81.9098 30.7122 81.9098C23.832 81.9098 18.2537 76.3314 18.2537 69.4512C18.2537 62.5697 23.832 56.9913 30.7122 56.9913C37.5924 56.9913 43.1707 62.5697 43.1707 69.4512Z" fill="#A06E50"/>
<path d="M153.446 65.1353C153.446 99.8453 125.307 127.984 90.5975 127.984C55.8861 127.984 27.7473 99.8453 27.7473 65.1353C27.7473 30.4239 55.8861 2.28516 90.5975 2.28516C125.307 2.28516 153.446 30.4239 153.446 65.1353Z" fill="#CD916E"/>
<path d="M45.872 65.1353C45.872 33.5015 69.2441 7.33201 99.6598 2.93747C96.7004 2.51038 93.675 2.28516 90.5975 2.28516C55.8861 2.28516 27.7473 30.4239 27.7473 65.1353C27.7473 99.8453 55.8861 127.984 90.5975 127.984C93.675 127.984 96.7004 127.759 99.6598 127.332C69.2441 122.939 45.872 96.7678 45.872 65.1353Z" fill="#B67F5F"/>
<path d="M21.7818 61.0786H159.413C161.038 61.0786 162.308 59.6723 162.141 58.0573C161.383 50.7294 159.463 43.7435 156.568 37.2849C155.644 35.2249 153.606 33.8915 151.349 33.8915H29.8458C27.5881 33.8915 25.5501 35.2249 24.6272 37.2849C21.731 43.7435 19.8111 50.7294 19.0544 58.0573C18.8869 59.6723 20.1572 61.0786 21.7818 61.0786Z" fill="#BD70FF"/>
<path d="M37.1791 58.056C37.9372 50.7294 39.8571 43.7435 42.752 37.2849C43.6748 35.2249 45.7142 33.8915 47.9705 33.8915H29.8458C27.5881 33.8915 25.5501 35.2249 24.6272 37.2849C21.731 43.7435 19.8111 50.7294 19.0544 58.056C18.8869 59.6723 20.1572 61.0786 21.7818 61.0786H39.9065C38.2819 61.0786 37.0116 59.6723 37.1791 58.056Z" fill="#A35BEF"/>
<path d="M57.6097 128.695C55.0375 130.455 52.6137 132.413 50.3601 134.548V177.012C50.3601 166.777 52.9913 157.157 57.6097 148.788V128.695Z" fill="#EDEBED"/>
<path d="M114.985 88.0927H110.992C109.537 88.0927 108.356 86.913 108.356 85.4559C108.356 84.0002 109.537 82.8192 110.992 82.8192H114.985C116.44 82.8192 117.621 84.0002 117.621 85.4559C117.621 86.913 116.44 88.0927 114.985 88.0927Z" fill="#E6646E"/>
<path d="M70.2026 88.0927H66.2105C64.7534 88.0927 63.5737 86.913 63.5737 85.4559C63.5737 84.0002 64.7534 82.8192 66.2105 82.8192H70.2026C71.6583 82.8192 72.8393 84.0002 72.8393 85.4559C72.8393 86.913 71.6583 88.0927 70.2026 88.0927Z" fill="#E6646E"/>
<path d="M150.93 50.1226H30.2632C28.8075 50.1226 27.6265 48.9415 27.6265 47.4858C27.6265 46.0288 28.8075 44.8491 30.2632 44.8491H150.93C152.386 44.8491 153.567 46.0288 153.567 47.4858C153.567 48.9415 152.387 50.1226 150.93 50.1226Z" fill="#A35BEF"/>
<path d="M98.7741 86.1069C99.5006 84.8435 99.0653 83.2312 97.8032 82.5061C96.5412 81.7796 94.9289 82.215 94.2038 83.477C93.4622 84.7666 92.0807 85.5658 90.5975 85.5658C89.1144 85.5658 87.7329 84.7652 86.9913 83.477C86.2662 82.215 84.6539 81.7796 83.3919 82.5061C82.1298 83.2312 81.6945 84.8435 82.4196 86.1055C84.0978 89.0251 87.2316 90.8393 90.5975 90.8393C93.9621 90.8393 97.096 89.0265 98.7741 86.1069Z" fill="#0B0B29"/>
<path d="M112.988 80.5464C114.445 80.5464 115.624 79.3667 115.624 77.9097V73.9175C115.624 72.4618 114.445 71.2808 112.988 71.2808C111.532 71.2808 110.351 72.4618 110.351 73.9175V77.9097C110.351 79.3667 111.532 80.5464 112.988 80.5464Z" fill="#0B0B29"/>
<path d="M68.2058 71.2808C66.7501 71.2808 65.5691 72.4618 65.5691 73.9175V77.9097C65.5691 79.3667 66.7501 80.5464 68.2058 80.5464C69.6629 80.5464 70.8425 79.3667 70.8425 77.9097V73.9175C70.8425 72.4618 69.6629 71.2808 68.2058 71.2808Z" fill="#0B0B29"/>
<path d="M125.048 126.498C123.496 125.438 121.888 124.445 120.228 123.524C136.188 115.392 148.389 100.907 153.482 83.4235C160.388 82.0158 165.578 75.8305 165.578 68.6331C165.578 66.0966 164.96 63.6631 163.778 61.4782C164.543 60.4153 164.9 59.0997 164.764 57.7855C163.991 50.3106 162.042 43.05 158.974 36.2069C157.625 33.1994 154.632 31.2548 151.349 31.2548H146.642C141.041 22.0139 133.21 14.2465 123.9 8.7369C113.852 2.79053 102.335 -0.351562 90.5976 -0.351562C78.8587 -0.351562 67.3437 2.79053 57.2953 8.7369C47.9843 14.2465 40.1525 22.0125 34.5535 31.2548H29.8459C26.5623 31.2548 23.5699 33.198 22.2214 36.2055C19.152 43.05 17.2033 50.3106 16.4316 57.7855C16.2956 59.0997 16.6527 60.4153 17.4176 61.4782C16.2352 63.6645 15.6172 66.0994 15.6172 68.6331C15.6172 75.9363 20.7162 82.0364 27.7145 83.429C32.8095 100.91 45.0084 115.392 60.9661 123.524C59.3085 124.444 57.7018 125.435 56.1513 126.495C56.1403 126.502 56.1294 126.511 56.1184 126.517C53.4542 128.34 50.9562 130.361 48.6367 132.554C48.5762 132.608 48.5172 132.663 48.4609 132.722C36.5503 144.079 29.4586 160.011 29.4586 177.012C29.4586 178.468 30.6396 179.649 32.0953 179.649H149.099C150.556 179.649 151.735 178.468 151.735 177.012C151.735 160.011 144.645 144.079 132.734 132.722C132.678 132.663 132.619 132.608 132.557 132.554C130.241 130.363 127.744 128.343 125.082 126.522C125.07 126.513 125.059 126.506 125.048 126.498ZM123.591 156.219C125.047 156.219 126.228 155.039 126.228 153.582V133.991C126.898 134.547 127.557 135.117 128.198 135.702V174.375H126.228V163.426C126.228 161.97 125.047 160.789 123.591 160.789C122.134 160.789 120.954 161.97 120.954 163.426V174.375H60.2465V130.111C61.4632 129.322 62.7143 128.573 64.0011 127.876C63.9997 127.948 63.9956 128.021 63.9956 128.095C63.9956 142.763 75.9295 154.696 90.5976 154.696C105.266 154.696 117.2 142.763 117.2 128.095C117.2 128.021 117.194 127.948 117.194 127.876C118.482 128.575 119.735 129.323 120.954 130.114V153.584C120.954 155.039 122.134 156.219 123.591 156.219ZM52.9955 135.703C53.6396 135.116 54.3001 134.544 54.973 133.987V174.375H52.9955V135.703ZM104.635 129.102C104.116 136.396 98.0203 142.173 90.5976 142.173C83.1736 142.173 77.0776 136.396 76.5598 129.102C81.0835 130.093 85.7801 130.621 90.5976 130.621C95.4152 130.621 100.11 130.093 104.635 129.102ZM90.5976 147.446C101.268 147.446 109.949 138.766 109.949 128.095C109.949 127.965 109.939 127.836 109.936 127.707C110.596 127.502 111.249 127.286 111.9 127.061C111.917 127.406 111.926 127.751 111.926 128.095C111.926 139.856 102.357 149.424 90.5976 149.424C78.8368 149.424 69.269 139.856 69.269 128.095C69.269 127.751 69.2786 127.406 69.2951 127.063C69.9447 127.286 70.5984 127.502 71.2576 127.707C71.2548 127.836 71.2452 127.966 71.2452 128.095C71.2466 138.766 79.9272 147.446 90.5976 147.446ZM154.931 77.381C155.685 73.4122 156.083 69.3197 156.083 65.1353C156.083 64.6629 156.071 64.1891 156.061 63.7153H158.979C159.845 65.204 160.305 66.8794 160.305 68.6331C160.305 72.4 158.121 75.7399 154.931 77.381ZM27.0334 38.363C27.5333 37.2478 28.6374 36.5282 29.8459 36.5282H110.992C112.448 36.5282 113.629 35.3472 113.629 33.8915C113.629 32.4358 112.448 31.2548 110.992 31.2548H40.8226C51.9806 14.9071 70.6464 4.92189 90.5976 4.92189C110.549 4.92189 129.213 14.9071 140.373 31.2548H120.836C119.381 31.2548 118.199 32.4358 118.199 33.8915C118.199 35.3472 119.381 36.5282 120.836 36.5282H145.141H145.145H145.15H151.348C152.557 36.5282 153.662 37.2478 154.162 38.363C157.001 44.6952 158.802 51.412 159.518 58.3279C159.519 58.343 159.522 58.3718 159.492 58.4076C159.46 58.4419 159.43 58.4419 159.412 58.4419H21.7819C21.7654 58.4419 21.7352 58.4419 21.7023 58.4076C21.672 58.3718 21.6748 58.343 21.6762 58.3279C22.3916 51.412 24.1948 44.6952 27.0334 38.363ZM20.8906 68.6331C20.8906 66.8794 21.3507 65.204 22.2159 63.7153H25.1327C25.1231 64.1891 25.1108 64.6629 25.1108 65.1353C25.1108 69.3294 25.5118 73.4314 26.2698 77.4084C23.0467 75.7907 20.8906 72.466 20.8906 68.6331ZM30.3842 65.1353C30.3842 64.6629 30.3952 64.1891 30.4062 63.7153H150.788C150.799 64.1891 150.81 64.6629 150.81 65.1353C150.81 98.3361 123.798 125.347 90.5976 125.347C57.3955 125.347 30.3842 98.3361 30.3842 65.1353ZM47.722 141.219V174.375H34.7952C35.3789 162.031 40.0453 150.432 47.722 141.219ZM146.4 174.375H133.472V141.219C141.15 150.432 145.816 162.031 146.4 174.375Z" fill="#0B0B29"/>
</g>
<defs>
<clipPath id="clip0">
<rect width="180" height="180" fill="white" transform="translate(0.5)"/>
</clipPath>
</defs>
</svg>
