<svg width="20" height="20" viewBox="0 0 20 20" fill="none" xmlns="http://www.w3.org/2000/svg">
<path d="M0.832115 18.8672C0.771079 18.8672 0.709841 18.8605 0.648805 18.8448C0.272217 18.7571 0 18.4346 0 18.0478V16.3803C0 10.4037 4.86004 5.54098 10.8334 5.54098H11.1111V1.92775C11.1111 1.58759 11.3178 1.28184 11.6333 1.15401C11.9477 1.02739 12.3088 1.10393 12.5444 1.34963L19.7667 8.85375C20.0778 9.17619 20.0778 9.68754 19.7667 10.01L12.5444 17.5141C12.3088 17.7598 11.9454 17.8355 11.6333 17.7097C11.3178 17.5819 11.1111 17.2761 11.1111 16.936V13.323H9.79108C6.29559 13.323 3.1543 15.2662 1.59221 18.3935C1.44877 18.6826 1.14767 18.8672 0.832115 18.8672ZM10.8334 7.20856C6.1666 7.20856 2.30225 10.7159 1.73666 15.235C3.75652 12.9806 6.65326 11.6554 9.79108 11.6554H11.9444C12.4044 11.6554 12.7777 12.0289 12.7777 12.4892V14.8682L18.0099 9.43187L12.7777 3.99553V6.37477C12.7777 6.83502 12.4044 7.20856 11.9444 7.20856H10.8334Z" fill="white"/>
</svg>
