<svg width="24" height="24" viewBox="0 0 24 24" fill="none" xmlns="http://www.w3.org/2000/svg">
<path d="M11.5 3C12.8199 2.99656 14.1219 3.30493 15.3 3.9C16.7118 4.60557 17.8992 5.69025 18.7293 7.03255C19.5594 8.37485 19.9994 9.92176 20 11.5C20.0035 12.8199 19.6951 14.1219 19.1 15.3L21 21L15.3 19.1C14.1219 19.6951 12.8199 20.0034 11.5 20C9.92179 19.9994 8.37488 19.5594 7.03258 18.7293C5.69028 17.8992 4.6056 16.7117 3.90003 15.3C3.30496 14.1219 2.99659 12.8199 3.00003 11.5V11C3.11502 8.91565 3.99479 6.94696 5.47089 5.47086C6.94699 3.99476 8.91568 3.11499 11 3H11.5Z" stroke="#0B0B29" stroke-width="2" stroke-linecap="round" stroke-linejoin="round"/>
</svg>
