<svg width="24" height="14" viewBox="0 0 24 14" fill="none" xmlns="http://www.w3.org/2000/svg">
<path d="M23.0583 0.598252H19.1637C19.0047 0.598251 18.8487 0.641349 18.7123 0.722957C18.5759 0.804566 18.4642 0.921632 18.389 1.0617C18.389 1.0617 16.8357 3.92235 16.3368 4.88588C14.9945 7.47787 14.1253 6.66415 14.1253 5.46119V1.31334C14.1253 0.966735 13.9876 0.634323 13.7425 0.389235C13.4974 0.144147 13.165 0.00645734 12.8184 0.00645734H9.8902C9.49142 -0.023192 9.09169 0.0495961 8.72896 0.217908C8.36624 0.386221 8.05256 0.644469 7.81773 0.968124C7.81773 0.968124 9.30463 0.727714 9.30463 2.73118C9.30463 3.22798 9.33021 4.65715 9.35353 5.85585C9.35793 6.0325 9.30802 6.20624 9.21054 6.35361C9.11306 6.50099 8.97271 6.61491 8.80843 6.67999C8.64416 6.74507 8.46387 6.75818 8.2919 6.71754C8.11994 6.6769 7.96459 6.58448 7.84682 6.45275C6.64826 4.78577 5.65546 2.98011 4.88998 1.075C4.82424 0.93249 4.719 0.811825 4.58674 0.727322C4.45449 0.642819 4.30077 0.598024 4.14383 0.598252C3.29922 0.598252 1.60908 0.598252 0.605355 0.598252C0.508024 0.59759 0.411987 0.620567 0.325495 0.665209C0.239003 0.709851 0.164641 0.774823 0.108799 0.854544C0.0529563 0.934265 0.0173026 1.02635 0.0049008 1.12289C-0.00750104 1.21943 0.00371968 1.31754 0.037599 1.40879C1.11205 4.356 5.74045 13.6177 11.0233 13.6177H13.2468C13.4798 13.6177 13.7033 13.5252 13.868 13.3604C14.0327 13.1957 14.1253 12.9723 14.1253 12.7393V11.3966C14.1253 11.2282 14.1746 11.0635 14.267 10.9227C14.3595 10.7819 14.4912 10.6713 14.6458 10.6044C14.8004 10.5375 14.9711 10.5173 15.1371 10.5463C15.303 10.5753 15.4568 10.6522 15.5795 10.7676L18.241 13.2681C18.48 13.4927 18.7956 13.6177 19.1236 13.6177H22.6185C24.3041 13.6177 24.3041 12.4481 23.3851 11.543C22.7383 10.906 20.4044 8.44596 20.4044 8.44596C20.2046 8.23891 20.0854 7.9672 20.0683 7.67992C20.0513 7.39265 20.1376 7.10876 20.3117 6.87957C21.0661 5.88682 22.3 4.26176 22.8233 3.5656C23.5385 2.61406 24.8331 0.598252 23.0583 0.598252Z" fill="white"/>
</svg>
