<svg width="181" height="180" viewBox="0 0 181 180" fill="none" xmlns="http://www.w3.org/2000/svg">
<path d="M33.7886 177.363C33.7886 146.029 59.189 120.627 90.5233 120.627C121.858 120.627 147.259 146.029 147.259 177.363H33.7886Z" fill="#E3AA75"/>
<path d="M99.3124 121.306C96.4477 120.861 93.513 120.627 90.5233 120.627C59.189 120.627 33.7886 146.029 33.7886 177.363H51.3667C51.3667 149.019 72.1528 125.53 99.3124 121.306Z" fill="#D29B6E"/>
<path d="M129.547 177.363V165.059C129.547 163.117 127.973 161.543 126.031 161.543C124.089 161.543 122.516 159.969 122.516 158.027V130.505C113.408 124.273 102.391 120.627 90.5234 120.627C78.6555 120.627 67.6403 124.275 58.5312 130.505V158.027C58.5312 159.969 56.9575 161.543 55.0156 161.543C53.0738 161.543 51.5 163.117 51.5 165.059V177.363H129.547Z" fill="#E6646E"/>
<path d="M99.3825 121.317C96.4959 120.863 93.5378 120.627 90.5234 120.627C78.6555 120.627 67.6403 124.275 58.5312 130.505V149.991C66.8328 134.949 81.7618 124.078 99.3825 121.317Z" fill="#DC4655"/>
<path d="M70.6162 124.222C66.3164 125.835 62.2639 127.952 58.5312 130.505V130.508L107.276 177.363H125.93L70.6162 124.222Z" fill="#FFD164"/>
<path d="M76.7246 130.09L70.6162 124.222C66.3164 125.835 62.2639 127.952 58.5312 130.505V130.508L66.8067 138.462C69.7771 135.31 73.1046 132.498 76.7246 130.09Z" fill="#FFC350"/>
<path d="M110.451 124.222C114.751 125.835 118.803 127.952 122.535 130.505V130.508L73.7897 177.363H55.1377L110.451 124.222Z" fill="#EDEBED"/>
<path d="M21.4935 134.946C37.3097 134.946 50.1321 122.125 50.1321 106.308V17.1813C33.6911 17.1813 20.3633 30.5091 20.3633 46.9501V133.818C20.3633 134.441 20.8687 134.946 21.4935 134.946Z" fill="#5A4650"/>
<path d="M159.555 134.946C143.737 134.946 130.916 122.125 130.916 106.308V17.1813C147.356 17.1813 160.683 30.5091 160.683 46.9501V133.818C160.683 134.441 160.178 134.946 159.555 134.946Z" fill="#64505A"/>
<path d="M160.683 72.2543C160.683 78.9285 155.274 84.3379 148.601 84.3379C141.928 84.3379 136.519 78.9285 136.519 72.2543C136.519 65.5815 141.928 60.1721 148.601 60.1721C155.274 60.1721 160.683 65.5815 160.683 72.2543Z" fill="#E3AA75"/>
<path d="M44.5291 72.2543C44.5291 78.9285 39.1197 84.3379 32.4455 84.3379C25.7727 84.3379 20.3633 78.9285 20.3633 72.2543C20.3633 65.5815 25.7727 60.1721 32.4455 60.1721C39.1197 60.1721 44.5291 65.5815 44.5291 72.2543Z" fill="#D29B6E"/>
<path d="M151.477 68.8637C151.477 102.526 124.187 129.816 90.5234 129.816C56.86 129.816 29.5713 102.526 29.5713 68.8637C29.5713 35.2002 56.86 7.91016 90.5234 7.91016C124.187 7.91016 151.477 35.2002 151.477 68.8637Z" fill="#F5B97D"/>
<path d="M47.1494 68.8637C47.1494 38.1844 69.8142 12.8046 99.3125 8.54324C96.4423 8.12851 93.509 7.91016 90.5234 7.91016C56.86 7.91016 29.5713 35.2002 29.5713 68.8637C29.5713 102.527 56.86 129.816 90.5234 129.816C93.509 129.816 96.4423 129.597 99.3125 129.183C69.8142 124.921 47.1494 99.5416 47.1494 68.8637Z" fill="#E3AA75"/>
<path d="M156.496 63.0327C153.534 29.236 125.077 2.63672 90.5235 2.63672C55.9825 2.63672 27.532 29.2181 24.5547 62.9997L24.5849 63.0821C26.1477 61.7418 28.0566 60.7942 30.1591 60.3905C29.7746 63.1604 29.5713 65.988 29.5713 68.8623C29.5713 72.4081 29.8803 75.8798 30.4626 79.2595C38.2313 79.2595 44.5292 72.9616 44.5292 65.1929V47.3923C44.5292 47.3923 57.9009 34.4531 90.5605 34.4531C123.219 34.4531 136.518 47.4445 136.518 47.4445V65.1929C136.518 72.9616 142.816 79.2595 150.584 79.2595C151.167 75.8812 151.476 72.4081 151.476 68.8637C151.476 65.988 151.272 63.1604 150.888 60.3918C152.996 60.7956 154.909 61.7473 156.473 63.0931L156.496 63.0327Z" fill="#6E5A64"/>
<path d="M44.5292 65.0954V47.3923C44.5292 47.3923 46.0357 45.9352 49.2671 44.0016C57.9009 22.7609 77.2506 6.97632 100.57 3.40164C97.2938 2.90039 93.9388 2.63672 90.5235 2.63672C55.9825 2.63672 27.532 29.2181 24.5547 62.9997L24.5849 63.0821C26.1477 61.7418 28.0566 60.7942 30.1591 60.3905C29.7746 63.1604 29.5713 65.988 29.5713 68.8623C29.5713 72.4081 29.8803 75.8798 30.4626 79.2595C37.7877 79.2595 43.8027 73.6592 44.466 66.5071C44.4825 66.0347 44.5017 65.5637 44.5292 65.0954Z" fill="#64505A"/>
<path d="M114.91 88.4441H110.918C109.462 88.4441 108.281 87.2644 108.281 85.8074C108.281 84.3517 109.462 83.1707 110.918 83.1707H114.91C116.366 83.1707 117.547 84.3517 117.547 85.8074C117.547 87.2644 116.366 88.4441 114.91 88.4441Z" fill="#E6646E"/>
<path d="M70.1286 88.4441H66.1365C64.6808 88.4441 63.4998 87.2644 63.4998 85.8074C63.4998 84.3517 64.6808 83.1707 66.1365 83.1707H70.1286C71.5843 83.1707 72.7654 84.3517 72.7654 85.8074C72.7654 87.2644 71.5843 88.4441 70.1286 88.4441Z" fill="#E6646E"/>
<path d="M90.5233 91.1907C93.8893 91.1907 97.0231 89.3779 98.7013 86.4569C99.4264 85.1949 98.9924 83.5827 97.729 82.8576C96.4669 82.1311 94.8561 82.5664 94.1296 83.8285C93.3894 85.118 92.0065 85.9172 90.5233 85.9172C89.0402 85.9172 87.6586 85.118 86.9184 83.8285C86.192 82.5664 84.5797 82.1311 83.3177 82.8576C82.0556 83.5827 81.6203 85.1935 82.3454 86.4569C84.0249 89.3766 87.1574 91.1907 90.5233 91.1907Z" fill="#0B0B29"/>
<path d="M112.915 80.8978C114.37 80.8978 115.552 79.7181 115.552 78.2611V74.2689C115.552 72.8132 114.37 71.6322 112.915 71.6322C111.458 71.6322 110.278 72.8132 110.278 74.2689V78.2611C110.278 79.7181 111.458 80.8978 112.915 80.8978Z" fill="#0B0B29"/>
<path d="M68.1333 80.8978C69.589 80.8978 70.77 79.7181 70.77 78.2611V74.2689C70.77 72.8132 69.589 71.6322 68.1333 71.6322C66.6762 71.6322 65.4966 72.8132 65.4966 74.2689V78.2611C65.4966 79.7181 66.6762 80.8978 68.1333 80.8978Z" fill="#0B0B29"/>
<path d="M132.888 14.6118C120.809 5.15533 105.966 0 90.5233 0C75.0807 0 60.2382 5.15533 48.1587 14.6118C31.0516 15.639 17.7266 29.7359 17.7266 46.9501V109.263C17.7266 110.72 18.9076 111.9 20.3633 111.9C21.819 111.9 23 110.72 23 109.263V83.5675C24.8237 85.0891 27.0306 86.1781 29.4764 86.6739C32.5938 97.3444 38.4413 106.861 46.2059 114.417C42.8894 124.529 33.6087 131.646 23 132.266V119.107C23 117.65 21.819 116.47 20.3633 116.47C18.9076 116.47 17.7266 117.65 17.7266 119.107V133.818C17.7266 135.894 19.4157 137.583 21.4935 137.583C34.2335 137.583 45.6689 129.76 50.4287 118.18C53.8771 120.99 57.6234 123.448 61.6142 125.493C42.9498 135.908 31.1519 155.731 31.1519 177.363C31.1519 178.82 32.3315 180 33.7886 180H147.259C148.715 180 149.896 178.82 149.896 177.363C149.896 155.731 138.097 135.908 119.432 125.493C123.423 123.448 127.167 120.991 130.615 118.183C135.374 129.769 146.788 137.583 159.555 137.583C161.631 137.583 163.32 135.894 163.32 133.818V46.9501C163.32 29.7482 149.99 15.6377 132.888 14.6118ZM158.047 46.9501V55.3271C155.517 42.6874 149.473 31.0075 140.537 21.5703C150.819 25.4498 158.047 35.3595 158.047 46.9501ZM153.866 74.4214C153.873 74.3568 153.879 74.2923 153.884 74.2278C153.914 73.8734 153.941 73.5178 153.964 73.1607C153.975 72.9987 153.986 72.8366 153.995 72.6732C154.013 72.3779 154.03 72.0827 154.044 71.786C154.055 71.5292 154.064 71.2711 154.072 71.0143C154.081 70.7932 154.089 70.5721 154.094 70.3496C154.105 69.8538 154.114 69.3581 154.114 68.8637C154.114 67.4025 154.063 65.9386 153.963 64.4801C154.237 64.6696 154.502 64.8743 154.755 65.0926C154.793 65.1256 154.835 65.1517 154.874 65.1833C154.906 65.2148 154.935 65.2478 154.969 65.278C156.925 67.0647 158.047 69.6066 158.047 72.2543C158.047 75.8702 156.035 79.0274 153.02 80.6136C153.401 78.5825 153.685 76.517 153.866 74.4214ZM40.5122 21.5675C31.5748 31.0062 25.5296 42.686 23 55.3285V46.9501C23 35.3499 30.2276 25.443 40.5122 21.5675ZM23 72.2543C23 69.5943 24.133 67.0413 26.1064 65.2533C26.1366 65.2258 26.1627 65.1956 26.1915 65.1668C26.2286 65.1393 26.2657 65.1146 26.3014 65.0844C26.5527 64.8688 26.8136 64.6669 27.0842 64.4801C26.9853 65.9386 26.9345 67.4025 26.9345 68.8637C26.9345 69.3581 26.9413 69.8538 26.9523 70.351C26.9578 70.5721 26.9674 70.7932 26.9743 71.0129C26.9825 71.2711 26.9922 71.5279 27.0045 71.786C27.0169 72.0827 27.0347 72.3779 27.0512 72.6746C27.0622 72.8366 27.0718 72.9987 27.0828 73.1607C27.1061 73.5178 27.1336 73.8734 27.1624 74.2291C27.1679 74.2923 27.1734 74.3555 27.1803 74.42C27.3616 76.5143 27.6458 78.5811 28.0276 80.6149C25.0119 79.0288 23 75.8716 23 72.2543ZM33.6114 81.5941C41.3211 80.1178 47.1658 73.3269 47.1658 65.1929V48.62C50.4466 46.0574 63.8499 37.0898 90.5604 37.0898C96.6125 37.0898 102.411 37.5513 107.794 38.4631C109.232 38.709 110.591 37.7394 110.834 36.3029C111.077 34.8679 110.111 33.5069 108.674 33.2639C103.001 32.3039 96.9064 31.8164 90.5604 31.8164C57.2183 31.8164 43.2725 44.9382 42.6957 45.4971C42.1821 45.9929 41.8924 46.6768 41.8924 47.3923V65.1929C41.8924 70.7314 37.9332 75.3607 32.6982 76.403C32.5403 75.1945 32.4235 73.9792 32.3411 72.7652C32.3343 72.6691 32.3288 72.5729 32.3233 72.4768C32.2917 71.9865 32.2697 71.4963 32.2505 71.0074C32.2464 70.8769 32.2395 70.7478 32.2368 70.6187C32.2189 70.0323 32.2079 69.4473 32.2079 68.8637C32.2079 68.1853 32.2203 67.5069 32.2436 66.8285C32.315 64.8029 32.4908 62.7676 32.771 60.7544C32.7723 60.7434 32.7723 60.7324 32.7737 60.7214C32.782 60.6624 32.7874 60.6033 32.7957 60.5457C33.0017 59.1037 31.9992 57.7675 30.5586 57.5629C29.8527 57.4626 29.1729 57.6521 28.6387 58.0394C28.3627 58.1136 28.088 58.1932 27.8175 58.2825C32.9138 28.1827 59.5446 5.27344 90.5233 5.27344C121.508 5.27344 148.133 28.1813 153.231 58.2825C152.692 58.1039 152.142 57.9611 151.583 57.8458C151.558 57.8389 151.532 57.8348 151.506 57.8293C151.465 57.821 151.425 57.8087 151.383 57.8004C151.379 57.8004 151.374 57.8004 151.37 57.7991C151.272 57.7812 151.175 57.7675 151.074 57.7606C151.073 57.7606 151.07 57.7606 151.069 57.7606C150.976 57.7538 150.881 57.7538 150.785 57.7579C150.733 57.7592 150.682 57.7661 150.63 57.7716C150.597 57.7744 150.564 57.7757 150.529 57.7798C150.521 57.7812 150.511 57.784 150.503 57.7853C150.446 57.7936 150.389 57.8059 150.332 57.8183C150.296 57.8252 150.26 57.8334 150.224 57.8416C150.168 57.8568 150.112 57.8732 150.056 57.8925C150.023 57.9034 149.991 57.9158 149.958 57.9268C149.902 57.9488 149.845 57.9707 149.789 57.9968C149.764 58.0078 149.741 58.0215 149.715 58.0339C149.483 58.1493 149.263 58.2962 149.071 58.4789C149.031 58.5159 148.998 58.5571 148.961 58.597C148.956 58.6024 148.95 58.6093 148.943 58.6162C148.598 58.9938 148.373 59.4594 148.291 59.9565C148.289 59.9606 148.289 59.9648 148.289 59.9675C148.247 60.2257 148.239 60.4893 148.276 60.7544C148.649 63.4433 148.839 66.1707 148.839 68.8623C148.839 69.446 148.828 70.031 148.81 70.6174C148.806 70.7478 148.799 70.8769 148.795 71.0088C148.777 71.4977 148.754 71.9865 148.723 72.4768C148.718 72.5729 148.711 72.6677 148.706 72.7638C148.623 73.9792 148.505 75.1932 148.349 76.403C143.112 75.3607 139.154 70.73 139.154 65.1929V47.4445C139.154 46.7345 138.867 46.0547 138.361 45.5589C138.109 45.3131 132.071 39.5206 118.581 35.5367C117.184 35.1247 115.718 35.9225 115.306 37.3192C114.894 38.7158 115.692 40.1825 117.088 40.5945C126.586 43.3987 131.976 47.1506 133.881 48.6598V65.1929C133.881 73.3255 139.726 80.1164 147.435 81.5941C141.611 107.647 118.308 127.179 90.5233 127.179C62.7403 127.179 39.4355 107.647 33.6114 81.5941ZM90.5494 139.719L82.4429 131.942C85.0892 132.278 87.7864 132.453 90.5233 132.453C93.2795 132.453 95.9959 132.275 98.6601 131.933L90.5494 139.719ZM72.72 129.912C72.7488 129.942 72.7749 129.972 72.8038 130.001L86.7413 143.373L81.2275 148.666L62.7705 130.923C64.3924 129.952 66.0733 129.061 67.8119 128.256C69.4186 128.872 71.0556 129.426 72.72 129.912ZM61.1679 158.027V136.697L77.4194 152.321L54.1366 174.669V165.059C54.1366 164.574 54.5308 164.18 55.0155 164.18C58.4076 164.18 61.1679 161.419 61.1679 158.027ZM55.8944 135.799V158.027C55.8944 158.512 55.5003 158.906 55.0155 158.906C51.6235 158.906 48.8632 161.667 48.8632 165.059V174.727H36.4885C37.2342 159.456 44.4178 145.381 55.8944 135.799ZM126.031 164.18C126.516 164.18 126.91 164.574 126.91 165.059V174.65L103.652 152.305L119.879 136.699V158.027C119.879 161.419 122.639 164.18 126.031 164.18ZM99.848 155.963L119.379 174.727H108.338L94.326 161.274L99.848 155.963ZM90.522 164.932L100.723 174.727H80.3376L90.522 164.932ZM144.558 174.727H132.184V165.059C132.184 161.667 129.423 158.906 126.031 158.906C125.546 158.906 125.152 158.512 125.152 158.027V135.799C136.629 145.381 143.813 159.456 144.558 174.727ZM118.278 130.923L72.7296 174.727H61.6925L108.406 129.889C110.045 129.408 111.654 128.863 113.235 128.256C114.973 129.062 116.656 129.952 118.278 130.923ZM134.844 114.416C142.607 106.86 148.453 97.3444 151.57 86.6739C154.016 86.1768 156.223 85.0877 158.047 83.5648V132.266C147.42 131.648 138.16 124.534 134.844 114.416Z" fill="#0B0B29"/>
</svg>
