<svg width="40" height="40" viewBox="0 0 40 40" fill="none" xmlns="http://www.w3.org/2000/svg">
<rect x="0.5" y="0.5" width="39" height="39" rx="7.5" fill="white" stroke="white"/>
<path d="M10.5508 34.5605C10.5508 29.3381 14.7844 25.1045 20.0068 25.1045C25.2292 25.1045 29.4626 29.3381 29.4626 34.5605H10.5508Z" fill="#EDEBED"/>
<path d="M21.4714 25.2176C20.994 25.1434 20.5049 25.1045 20.0066 25.1045C14.7842 25.1045 10.5508 29.3381 10.5508 34.5605H13.4805C13.4805 29.8364 16.9448 25.9216 21.4714 25.2176Z" fill="#DBD9DC"/>
<path d="M21.0132 32.9492H18.9917C18.7891 32.9492 18.625 32.785 18.625 32.5825V29.488C18.625 29.2854 18.7891 29.1213 18.9917 29.1213H21.0132C21.2155 29.1213 21.3796 29.2854 21.3796 29.488V32.5825C21.3796 32.785 21.2155 32.9492 21.0132 32.9492Z" fill="#DBD9DC"/>
<path d="M20.0037 22.7147H16.6133V25.7312L20.0037 29.1214L23.3941 25.7312V22.7147H20.0037Z" fill="#F7D291"/>
<path d="M21.116 30.2335L20.0039 29.1214L23.8745 25.2507L24.9864 26.3629C25.2469 26.6231 25.2469 27.0452 24.9864 27.3054L22.0586 30.2335C21.7983 30.4937 21.3763 30.4937 21.116 30.2335Z" fill="#8CB4EB"/>
<path d="M25.1358 26.5947C25.1035 26.5103 25.0536 26.4311 24.9854 26.3629L23.8735 25.2507L21.3828 27.7414C22.719 27.5785 23.9841 27.1825 25.1358 26.5947Z" fill="#739BD7"/>
<path d="M18.8939 30.2335L20.0061 29.1214L16.1354 25.2507L15.0233 26.3629C14.7631 26.6231 14.7631 27.0452 15.0233 27.3054L17.9514 30.2335C18.2116 30.4937 18.6337 30.4937 18.8939 30.2335Z" fill="#8CB4EB"/>
<path d="M18.6238 27.7414L16.1334 25.2507L15.0212 26.3629C14.9533 26.4311 14.9036 26.51 14.8711 26.5945C16.0228 27.1823 17.2879 27.5785 18.6238 27.7414Z" fill="#739BD7"/>
<path d="M16.6133 22.7147V25.7312L18.6236 27.7414C19.0763 27.7966 19.5366 27.8257 20.0037 27.8257C20.4709 27.8257 20.9314 27.7966 21.3839 27.7414L23.3941 25.7312V22.7147H16.6133Z" fill="#F0C382"/>
<path d="M31.6954 17.0424C31.6954 18.1548 30.7938 19.0563 29.6817 19.0563C28.5695 19.0563 27.668 18.1548 27.668 17.0424C27.668 15.9303 28.5695 15.0287 29.6817 15.0287C30.7938 15.0287 31.6954 15.9303 31.6954 17.0424Z" fill="#F7D291"/>
<path d="M12.3401 17.0424C12.3401 18.1548 11.4386 19.0563 10.3264 19.0563C9.21407 19.0563 8.3125 18.1548 8.3125 17.0424C8.3125 15.9303 9.21407 15.0287 10.3264 15.0287C11.4386 15.0287 12.3401 15.9303 12.3401 17.0424Z" fill="#F0C382"/>
<path d="M30.1653 16.4773C30.1653 22.0877 25.6169 26.636 20.0063 26.636C14.3958 26.636 9.84766 22.0877 9.84766 16.4773C9.84766 10.8667 14.3958 6.31836 20.0063 6.31836C25.6169 6.31836 30.1653 10.8667 30.1653 16.4773Z" fill="#FFE1A0"/>
<path d="M12.7773 16.4773C12.7773 11.3641 16.5548 7.1341 21.4712 6.42387C20.9928 6.35475 20.5039 6.31836 20.0063 6.31836C14.396 6.31836 9.84766 10.8667 9.84766 16.4773C9.84766 22.0877 14.396 26.636 20.0063 26.636C20.5039 26.636 20.9928 26.5996 21.4712 26.5305C16.5548 25.8203 12.7773 21.5903 12.7773 16.4773Z" fill="#F7D291"/>
<path d="M30.013 18.2099C30.1098 17.6469 30.1615 17.068 30.1615 16.4773C30.1615 15.998 30.1277 15.5267 30.0633 15.0653C30.4147 15.1326 30.7335 15.2912 30.9944 15.5155L30.9981 15.5054C30.5044 9.87267 25.7615 5.43945 20.0026 5.43945C14.2458 5.43945 9.50403 9.86969 9.00781 15.5L9.01285 15.5137C9.27332 15.2903 9.59146 15.1324 9.94211 15.0651C9.87779 15.5267 9.84392 15.998 9.84392 16.4771C9.84392 17.068 9.89565 17.6466 9.99246 18.2099C11.2872 18.2099 12.3369 17.1603 12.3369 15.8655V13.4398C12.3369 13.0942 12.6168 12.814 12.9624 12.814H27.0428C27.3884 12.814 27.6685 13.0942 27.6685 13.4398V15.8655C27.6685 17.1603 28.718 18.2099 30.013 18.2099Z" fill="#B67F5F"/>
<path d="M12.9624 12.8143C14.2957 9.03587 17.63 6.19362 21.6865 5.56831C21.1374 5.48409 20.575 5.43945 20.0026 5.43945C14.2458 5.43945 9.50403 9.86969 9.00781 15.5L9.01285 15.5137C9.27332 15.2903 9.59146 15.1324 9.94211 15.0651C9.87779 15.5267 9.84392 15.998 9.84392 16.4771C9.84392 17.068 9.89564 17.6466 9.99246 18.2099C11.2872 18.2099 12.3369 17.1603 12.3369 15.8655V13.4398C12.3369 13.0944 12.6168 12.8143 12.9624 12.8143Z" fill="#A06E50"/>
<path d="M9.25808 14.0489H30.7505C31.0627 14.0489 31.2912 13.7506 31.2056 13.4506C30.8119 12.0725 30.1568 10.8038 29.2974 9.70171C29.2072 9.58612 29.0696 9.51746 28.9229 9.51746H11.0857C10.9392 9.51746 10.8017 9.58612 10.7115 9.70171C9.8518 10.8038 9.19674 12.0725 8.80329 13.4506C8.71769 13.7506 8.94611 14.0489 9.25808 14.0489Z" fill="#8CB4EB"/>
<path d="M11.733 13.4503C12.1264 12.0722 12.7815 10.8038 13.6412 9.70171C13.7313 9.58612 13.8689 9.51746 14.0154 9.51746H11.0857C10.9392 9.51746 10.8017 9.58612 10.7115 9.70171C9.85179 10.8038 9.19674 12.0722 8.80329 13.4503C8.71769 13.7506 8.94611 14.0486 9.25808 14.0486H12.1878C11.8758 14.0489 11.6474 13.7506 11.733 13.4503Z" fill="#739BD7"/>
<path d="M29.0169 12.2227H11.041C10.7982 12.2227 10.6016 12.0258 10.6016 11.7832C10.6016 11.5404 10.7982 11.3438 11.041 11.3438H29.0169C29.2596 11.3438 29.4564 11.5404 29.4564 11.7832C29.4564 12.0258 29.2596 12.2227 29.0169 12.2227Z" fill="#739BD7"/>
<path d="M30.1802 19.4445C31.2994 19.2126 32.1366 18.2133 32.1366 17.0424C32.1366 16.3907 31.8773 15.77 31.4207 15.3116C31.3871 14.9795 31.3399 14.6473 31.2774 14.3196C31.3527 14.2658 31.4214 14.2013 31.4791 14.1248C31.6523 13.8952 31.7063 13.6055 31.6276 13.3297C31.2229 11.9122 30.5553 10.6007 29.6434 9.43137C29.4683 9.20684 29.2056 9.07798 28.9225 9.07798H28.77C26.5785 6.48407 23.3961 5 20.0039 5C16.6123 5 13.4295 6.48407 11.2379 9.07798H11.0853C10.8024 9.07798 10.5396 9.20684 10.3645 9.43137C9.45266 10.6005 8.78502 11.912 8.38035 13.3297C8.30139 13.6055 8.35564 13.8955 8.5289 14.1248C8.58658 14.2013 8.65501 14.2658 8.73031 14.3196C8.66783 14.6476 8.62091 14.9795 8.58703 15.3116C8.13042 15.77 7.87109 16.3907 7.87109 17.0426C7.87109 18.228 8.69484 19.2156 9.82803 19.4452C10.4046 21.4202 11.554 23.2032 13.1393 24.552C13.7051 25.0333 14.3169 25.4503 14.963 25.7994L14.7101 26.0523C14.6258 26.1365 14.5585 26.2315 14.5073 26.3322C11.7515 28.1761 10.1084 31.2444 10.1084 34.5605C10.1084 34.8033 10.3052 34.9999 10.5479 34.9999H29.4599C29.7027 34.9999 29.8993 34.8033 29.8993 34.5605C29.8993 31.2435 28.2562 28.1754 25.4995 26.3317C25.4483 26.231 25.3812 26.1363 25.297 26.0523L25.0443 25.7996C25.6907 25.4505 26.3027 25.0335 26.8685 24.5522C28.4539 23.2029 29.6036 21.4197 30.1802 19.4445ZM28.1092 14.4883H30.4143C30.4287 14.5633 30.4427 14.6384 30.4555 14.714C30.3548 14.6805 30.2518 14.6538 30.1472 14.6336C30.008 14.6071 29.8645 14.649 29.7618 14.7467C29.659 14.8442 29.6098 14.9854 29.6292 15.1257C29.6915 15.5741 29.7233 16.0289 29.7233 16.477C29.7233 16.8947 29.6958 17.3161 29.6416 17.7338C28.7689 17.5601 28.1092 16.7885 28.1092 15.8655V14.4883ZM30.4216 18.4321C30.4308 18.3829 30.4402 18.3337 30.4486 18.2845C30.4505 18.2733 30.4516 18.2621 30.4525 18.2511C30.5516 17.6642 30.6022 17.0678 30.6022 16.4773C30.6022 16.2346 30.5938 15.9907 30.5768 15.7467C30.6226 15.7783 30.6668 15.8124 30.7091 15.8487C30.7107 15.8501 30.7123 15.851 30.7139 15.8524C31.0595 16.1518 31.2577 16.5855 31.2577 17.0426C31.2577 17.6386 30.9197 18.1653 30.4216 18.4321ZM9.22538 13.5709C9.59915 12.2624 10.2155 11.0516 11.0576 9.97176C11.0649 9.96238 11.0752 9.95688 11.0855 9.95688H22.8784C23.121 9.95688 23.3178 9.76005 23.3178 9.51743C23.3178 9.27459 23.121 9.07798 22.8784 9.07798H12.4235C14.415 7.03453 17.1284 5.8789 20.0039 5.8789C22.8798 5.8789 25.5927 7.03453 27.5844 9.07798H24.519C24.2762 9.07798 24.0796 9.27459 24.0796 9.51743C24.0796 9.76005 24.2762 9.95688 24.519 9.95688H28.9225C28.9328 9.95688 28.9428 9.96238 28.9504 9.97176C29.7924 11.0516 30.409 12.2626 30.7826 13.5711C30.7837 13.5753 30.7862 13.584 30.7773 13.5954C30.767 13.6091 30.7544 13.6091 30.7501 13.6091H9.25926C9.25674 13.6091 9.25422 13.6089 9.25194 13.6087C9.24598 13.6078 9.23774 13.605 9.23042 13.5954C9.22172 13.584 9.22424 13.5753 9.22538 13.5709ZM10.3664 17.7338C10.3121 17.3161 10.2846 16.895 10.2846 16.4773C10.2846 16.0289 10.3162 15.5741 10.3785 15.1257C10.3982 14.9854 10.3487 14.8444 10.246 14.7467C10.1434 14.6492 10.0001 14.6071 9.86053 14.6336C9.75616 14.6538 9.65316 14.6805 9.55246 14.714C9.56504 14.6384 9.57924 14.5633 9.59343 14.4883H11.8987V15.8657C11.8987 16.7885 11.2389 17.5601 10.3664 17.7338ZM8.75 17.0424C8.75 16.5848 8.94867 16.1506 9.29519 15.851C9.2968 15.8497 9.29863 15.8487 9.30023 15.8474C9.34211 15.8114 9.38583 15.7778 9.43092 15.7464C9.41421 15.9907 9.40574 16.2346 9.40574 16.477C9.40574 17.0675 9.4561 17.6642 9.5552 18.2511C9.55635 18.2621 9.55726 18.2731 9.55909 18.2843C9.56756 18.3333 9.57695 18.382 9.5861 18.4308C9.08874 18.1632 8.75 17.6352 8.75 17.0424ZM10.517 18.5994C11.8026 18.3539 12.7776 17.2218 12.7776 15.8655V14.4883H27.2303V15.8655C27.2303 17.2218 28.2051 18.3539 29.4908 18.5994C29.4654 18.7141 29.4379 18.8279 29.4086 18.9409C29.4072 18.9457 29.4059 18.9508 29.4049 18.9556C28.2969 23.1979 24.4687 26.1965 20.0039 26.1965C15.4153 26.1965 11.4986 23.029 10.517 18.5994ZM19.0657 30.659C19.1135 30.6244 19.1598 30.5869 19.2023 30.5443L20.0036 29.743L20.805 30.5443C20.8478 30.5871 20.8938 30.6244 20.9414 30.6587V32.5097H19.0657V30.659ZM20.0036 28.4999L18.4662 26.9623C18.973 27.0369 19.4868 27.0754 20.0039 27.0754C20.5209 27.0754 21.0343 27.0369 21.5408 26.9625L20.0036 28.4999ZM16.8574 26.5968L19.3822 29.1213L18.5807 29.9229C18.4923 30.0112 18.3481 30.0112 18.2596 29.9229L15.3317 26.9948C15.2431 26.9062 15.2431 26.7623 15.3317 26.6737L15.8 26.2052C16.1454 26.3544 16.4983 26.4851 16.8574 26.5968ZM29.0099 34.121H10.9981C11.1265 31.4566 12.4197 29.0046 14.5375 27.3903C14.5844 27.4709 14.6412 27.5473 14.7101 27.6162L17.6381 30.5443C17.7908 30.697 17.9806 30.7988 18.1868 30.843V32.5827C18.1868 33.027 18.5484 33.3886 18.9929 33.3886H21.0144C21.4589 33.3886 21.8205 33.027 21.8205 32.5827V30.8421C22.0217 30.799 22.2133 30.7002 22.3691 30.5443L25.2972 27.6162C25.3661 27.5473 25.4229 27.4707 25.4698 27.3899C27.5883 29.0044 28.8815 31.4559 29.0099 34.121ZM24.6756 26.6737C24.7641 26.7623 24.7641 26.9062 24.6756 26.9948L21.7475 29.9227C21.6619 30.0085 21.5122 30.0085 21.4266 29.9227L20.6251 29.1213L23.1494 26.597C23.5087 26.4853 23.8619 26.3546 24.2073 26.2054L24.6756 26.6737Z" fill="#0B0B29"/>
<path d="M21.3665 19.4097C21.4873 19.1991 21.415 18.9304 21.2047 18.8096C20.9943 18.6885 20.7256 18.7611 20.6045 18.9714C20.4812 19.1863 20.2509 19.3195 20.0035 19.3195C19.7563 19.3195 19.526 19.1861 19.4024 18.9714C19.2816 18.7611 19.0129 18.6885 18.8025 18.8096C18.5922 18.9304 18.5196 19.1991 18.6405 19.4095C18.9204 19.8961 19.4427 20.1984 20.0035 20.1984C20.5645 20.1984 21.0866 19.8963 21.3665 19.4097Z" fill="#0B0B29"/>
<path d="M23.7363 18.483C23.9789 18.483 24.1758 18.2864 24.1758 18.0435V17.3782C24.1758 17.1356 23.9789 16.9387 23.7363 16.9387C23.4935 16.9387 23.2969 17.1356 23.2969 17.3782V18.0435C23.2969 18.2864 23.4935 18.483 23.7363 18.483Z" fill="#0B0B29"/>
<path d="M16.2715 16.9387C16.0286 16.9387 15.832 17.1356 15.832 17.3782V18.0435C15.832 18.2864 16.0286 18.483 16.2715 18.483C16.5143 18.483 16.7109 18.2864 16.7109 18.0435V17.3782C16.7109 17.1356 16.5141 16.9387 16.2715 16.9387Z" fill="#0B0B29"/>
<path d="M24.0697 19.7407H23.4043C23.1617 19.7407 22.9648 19.5441 22.9648 19.3013C22.9648 19.0587 23.1617 18.8618 23.4043 18.8618H24.0697C24.3125 18.8618 24.5091 19.0587 24.5091 19.3013C24.5091 19.5441 24.3125 19.7407 24.0697 19.7407Z" fill="#E6646E"/>
<path d="M16.6048 19.7407H15.9395C15.6968 19.7407 15.5 19.5441 15.5 19.3013C15.5 19.0587 15.6968 18.8618 15.9395 18.8618H16.6048C16.8477 18.8618 17.0443 19.0587 17.0443 19.3013C17.0443 19.5441 16.8477 19.7407 16.6048 19.7407Z" fill="#E6646E"/>
</svg>
