<svg width="17" height="18" viewBox="0 0 17 18" fill="none" xmlns="http://www.w3.org/2000/svg">
<g clip-path="url(#clip0)">
<path fill-rule="evenodd" clip-rule="evenodd" d="M16.9998 1.40017V0.600011C16.9994 0.268804 16.731 0.000386718 16.3998 0H1.39982C1.06857 0.000351562 0.800121 0.268769 0.799805 0.600011V17.4C0.800121 17.7312 1.06857 17.9996 1.39982 18H16.3998C16.731 17.9996 16.9994 17.7312 16.9998 17.4L16.9998 1.40017ZM12.1997 3.00002V1.72501H5.59978V3.00002H12.1997ZM5.59985 15V16.275H12.1998L12.1998 15H5.59985ZM12.7998 16.275H15.2748L15.2748 9.3H11.5821C11.4299 10.6665 10.2747 11.7 8.89982 11.7C7.5249 11.7 6.36974 10.6665 6.21751 9.3H2.52482V16.275H4.99981V14.7C4.99981 14.5343 5.13411 14.4 5.2998 14.4H6.3697H11.4299H12.4998C12.6654 14.4 12.7998 14.5343 12.7998 14.7V16.275ZM8.89979 6.9C7.85635 6.9 6.97161 7.66707 6.82375 8.7H10.9758C10.828 7.66711 9.94322 6.9 8.89979 6.9ZM8.89979 11.1C9.94322 11.1 10.828 10.3329 10.9758 9.3H6.82375C6.97161 10.3329 7.85635 11.1 8.89979 11.1ZM11.5821 8.7H15.2748V6.86403V1.2395V1.72501H12.7998V3.30001C12.7998 3.46566 12.6655 3.59999 12.4998 3.59999H11.4299H6.3697H5.2998C5.13411 3.59999 4.99981 3.4657 4.99981 3.30001V1.72501H2.52482V8.7H6.21748C6.36974 7.33354 7.52487 6.29995 8.89979 6.29995C10.2747 6.29995 11.4299 7.33354 11.5821 8.7Z" fill="white"/>
</g>
<defs>
<clipPath id="clip0">
<rect width="16.2" height="18" fill="white" transform="translate(0.799805)"/>
</clipPath>
</defs>
</svg>
