<svg width="16" height="14" viewBox="0 0 16 14" fill="none" xmlns="http://www.w3.org/2000/svg">
<path d="M15.5 9.25332C15.5 13.4635 12.1974 12.4635 8 12.4635C3.80264 12.4635 0.5 13.4507 0.5 9.25332C0.5 5.05596 3.80264 1.4635 8 1.4635C12.1974 1.4635 15.5 5.05596 15.5 9.25332Z" fill="white"/>
<path d="M8.00008 0.963501C3.58186 0.963501 0 4.57939 0 9.03986C0 11.4584 1.04374 13.0358 1.04374 13.0358L14.9531 13.0365C14.9531 13.0365 15.9998 11.3126 15.9998 9.0397C15.9998 4.57939 12.418 0.963501 8.00008 0.963501ZM14.3663 12.0526L1.65916 12.047C1.65916 12.047 0.982052 10.7647 0.982052 9.01438C0.982052 5.10495 4.13608 1.93549 8.02691 1.93549C11.9176 1.93549 15.0718 5.10478 15.0718 9.01438C15.0719 10.7845 14.3663 12.0526 14.3663 12.0526Z" fill="#8A0000"/>
<path d="M10.2619 3.10814L10.1615 3.10797L8.02753 7.28949L5.81683 3.07227L2.79003 10.6908H2.00781V11.3027H6.2931V10.6908H5.44281L6.2931 8.30976L8.02753 11.3027L9.69407 8.30976L10.5442 10.6908H9.69407V11.3027H13.9452V10.6908H13.2087L10.2619 3.10814Z" fill="#8A0000"/>
</svg>
