<svg width="20" height="22" viewBox="0 0 20 22" fill="none" xmlns="http://www.w3.org/2000/svg">
<path fill-rule="evenodd" clip-rule="evenodd" d="M14.4376 5.04694C12.5287 5.04694 11.5152 6.00157 10.0155 5.98211C8.51534 6.00157 7.50222 5.04694 5.59304 5.04694C4.07349 5.04694 2.14449 5.98211 1.26793 7.34624C-0.348941 9.84049 -0.193222 12.5492 0.488692 15.3547C1.229 18.3367 3.83957 22 5.90478 22C7.59951 22 8.35962 21.0837 10.0155 21.0837C11.6709 21.0837 12.4112 22 14.0872 22C15.9961 22 18.2754 18.8623 19.25 16.0756C17.3794 15.3352 16.1128 13.4844 16.1128 11.5161C16.1128 9.56764 17.1068 8.06726 18.6264 7.20998C17.6914 5.94318 15.8987 5.04694 14.4376 5.04694ZM13.9308 0C11.1843 0.292359 9.1389 2.59157 9.31409 5.2027C12.0609 4.92985 14.0872 2.61108 13.9308 0Z" fill="white"/>
</svg>
